<?xml version="1.0" encoding="iso-8859-1"?>
<!-- Generator: Adobe Illustrator 18.0.0, SVG Export Plug-In . SVG Version: 6.00 Build 0)  -->
<!DOCTYPE svg PUBLIC "-//W3C//DTD SVG 1.1//EN" "http://www.w3.org/Graphics/SVG/1.1/DTD/svg11.dtd">
<svg version="1.1" id="Capa_1" xmlns="http://www.w3.org/2000/svg" xmlns:xlink="http://www.w3.org/1999/xlink" x="0px" y="0px"
	 viewBox="0 0 444.606 444.606" style="enable-background:new 0 0 444.606 444.606;fill:#fff;" xml:space="preserve">
<path id="XMLID_1333_" d="M357.546,130.492c-13.338-25.883-36.53-45.019-55.165-60.394c-8.203-6.768-25.214-19.226-41.198-52.987V10
	c0-5.523-4.477-10-10-10c-5.523,0-10,4.477-10,10c0,5.618,0,324.38,0,328.991c-2.632-2.315-5.503-4.52-8.617-6.596
	c-17.207-11.471-39.895-17.789-63.883-17.789c-50.053,0-92.5,27.825-92.5,65c0,37.17,42.439,65,92.5,65
	c50.053,0,92.5-27.825,92.5-65V56.267c11.369,15.688,19.573,21.918,28.47,29.258c36.274,29.93,81.42,67.179,45.739,138.294
	c-2.477,4.936-0.483,10.946,4.454,13.422c4.931,2.475,10.944,0.486,13.422-4.454C371.924,195.604,373.364,161.187,357.546,130.492z
	 M168.683,424.606c-39.299,0-72.5-20.607-72.5-45s33.201-45,72.5-45s72.5,20.607,72.5,45S207.982,424.606,168.683,424.606z"/>
<g>
</g>
<g>
</g>
<g>
</g>
<g>
</g>
<g>
</g>
<g>
</g>
<g>
</g>
<g>
</g>
<g>
</g>
<g>
</g>
<g>
</g>
<g>
</g>
<g>
</g>
<g>
</g>
<g>
</g>
</svg>
