<?xml version="1.0" encoding="UTF-8"?>
<!DOCTYPE svg PUBLIC "-//W3C//DTD SVG 1.1//EN" "http://www.w3.org/Graphics/SVG/1.1/DTD/svg11.dtd">
<!-- Creator: CorelDRAW X7 -->
<svg xmlns="http://www.w3.org/2000/svg" xml:space="preserve" width="2.91272in" height="5.72969in" version="1.1" style="shape-rendering:geometricPrecision; text-rendering:geometricPrecision; image-rendering:optimizeQuality; fill-rule:evenodd; clip-rule:evenodd" viewBox="0 0 29127 57297" xmlns:xlink="http://www.w3.org/1999/xlink">
 <defs>
  <style type="text/css">
   <![CDATA[
    .fil0 {fill:#E6AD62}
    .fil1 {fill:#E6AD62;fill-rule:nonzero}
   ]]>
  </style>
 </defs>
 <g id="Layer_x0020_1">
  <metadata id="CorelCorpID_0Corel-Layer"/>
  <g id="_2857959812192">
   <path class="fil0" d="M2229 39853c1644,769 3398,4473 5243,8369 1854,3914 3764,7946 5528,8772 238,111 472,164 704,151 2128,-123 2227,-3549 2352,-7887 117,-4030 249,-8599 2048,-11891 1370,-2507 4402,-3249 6838,-3845 1684,-412 3138,-768 3523,-1590 1334,-2852 -207,-5308 -1698,-7684 -1417,-2259 -2883,-4594 -1798,-7223 2166,-5255 2134,-10307 -92,-14225 -602,-1060 -1356,-2003 -2220,-2800l220 0c826,783 1549,1701 2131,2726 2249,3959 2284,9058 99,14356 -1054,2557 326,4757 1787,7086 1512,2410 3076,4902 1707,7828 -415,887 -1902,1251 -3623,1672 -2408,589 -5404,1322 -6742,3771 -1782,3260 -1913,7810 -2029,11824 -128,4414 -229,7902 -2494,8032 -252,14 -507,-43 -763,-163 -1830,-856 -3749,-4910 -5614,-8846 -1962,-4143 -3992,-8427 -5712,-8428 -639,-1 -1167,194 -1624,507l0 -175c461,-297 991,-483 1624,-483 200,0 402,51 605,146zm2363 -39853l-63 25c-1568,626 -3074,1228 -4529,1682l0 -157c1347,-424 2740,-973 4186,-1550l406 0z"/>
   <path class="fil0" d="M2244 39785c1622,759 3347,4259 5161,7940 2077,4217 4225,8577 6155,8447 2112,-142 2260,-3475 2447,-7696 170,-3835 363,-8183 2106,-11337 1327,-2406 4221,-3159 6547,-3764 1639,-426 3054,-795 3437,-1614 1315,-2810 -145,-5247 -1558,-7604 -1332,-2222 -2709,-4520 -1695,-7089 2020,-5113 1932,-10036 -247,-13863 -714,-1253 -1620,-2334 -2665,-3205l232 0c1002,862 1871,1916 2563,3131 2202,3867 2293,8836 257,13992 -987,2500 310,4665 1684,6957 1433,2391 2914,4863 1566,7744 -414,884 -1861,1260 -3536,1696 -2298,598 -5157,1342 -6454,3691 -1725,3124 -1918,7453 -2087,11272 -190,4296 -341,7688 -2587,7839 -264,18 -531,-42 -799,-167l0 0c-1795,-840 -3675,-4656 -5501,-8363 -1937,-3931 -3940,-7997 -5649,-8009 -639,-4 -1165,190 -1621,501l0 -175c460,-295 989,-481 1622,-476 206,2 413,54 622,152zm2745 -39785c-259,100 -518,200 -776,301 -1457,567 -2858,1111 -4213,1538l0 -158c1337,-423 2720,-961 4159,-1520l414 -161 416 0z"/>
   <path class="fil0" d="M2260 39717c1600,749 3294,4045 5075,7511 2052,3992 4174,8121 6081,7971 2096,-162 2294,-3401 2545,-7503 222,-3642 474,-7770 2160,-10786 1285,-2304 4042,-3067 6257,-3680 1593,-442 2969,-823 3352,-1641 1295,-2767 -84,-5186 -1419,-7524 -1247,-2186 -2536,-4446 -1591,-6954 1873,-4972 1729,-9766 -405,-13502 -828,-1450 -1918,-2674 -3185,-3609l250 0c1215,931 2262,2127 3066,3535 2157,3774 2304,8615 415,13629 -920,2442 295,4571 1581,6826 1353,2372 2752,4825 1424,7662 -412,882 -1819,1271 -3448,1722 -2188,606 -4911,1360 -6165,3609 -1670,2987 -1921,7096 -2142,10722 -245,4010 -457,7472 -2683,7644 -278,21 -558,-40 -841,-172l0 0c-1759,-823 -3598,-4403 -5385,-7881 -1911,-3718 -3885,-7563 -5583,-7587 -640,-9 -1164,184 -1619,494l0 -175c459,-294 988,-478 1621,-469 211,2 425,57 639,158zm3174 -39717c-510,189 -1018,381 -1523,572 -1352,512 -2651,1003 -3911,1401l0 -157c1242,-394 2525,-880 3858,-1384 380,-144 762,-289 1145,-432l431 0z"/>
   <path class="fil0" d="M2279 39650c1577,738 3239,3829 4986,7079 2026,3769 4121,7666 6007,7497 2082,-182 2343,-3485 2646,-7310 273,-3448 583,-7356 2212,-10234 1242,-2203 3862,-2976 5966,-3597 1548,-456 2885,-851 3267,-1668 1276,-2727 -23,-5127 -1279,-7448 -1162,-2148 -2363,-4368 -1488,-6815 1728,-4831 1529,-9498 -561,-13142 -954,-1663 -2256,-3032 -3775,-4012l273 0c1457,983 2706,2324 3632,3937 2112,3683 2316,8394 573,13267 -853,2384 279,4477 1478,6693 1274,2354 2592,4789 1283,7584 -411,878 -1777,1281 -3360,1749 -2079,613 -4666,1376 -5878,3526 -1613,2849 -1921,6739 -2193,10172 -308,3893 -574,7255 -2783,7447 -292,27 -588,-37 -886,-176l0 0c-1722,-806 -3519,-4149 -5266,-7399 -1885,-3505 -3834,-7130 -5517,-7166 -639,-13 -1162,179 -1616,486l0 -182c455,-289 980,-467 1619,-454 219,5 439,62 660,166zm3638 -39650c-786,275 -1570,563 -2348,850 -1231,454 -2417,891 -3569,1256l0 -158c1135,-361 2304,-792 3517,-1239 646,-238 1296,-477 1948,-709l452 0z"/>
   <path class="fil0" d="M2301 39584c1551,726 3180,3612 4892,6645 2001,3546 4072,7213 5935,7024 2068,-202 2385,-3406 2752,-7116 322,-3255 687,-6944 2259,-9684 1199,-2101 3682,-2882 5677,-3510 1501,-473 2798,-881 3180,-1698 1258,-2687 39,-5071 -1139,-7377 -1077,-2107 -2191,-4287 -1385,-6672 1585,-4690 1330,-9230 -719,-12783 -1092,-1894 -2641,-3413 -4451,-4413l304 0c1734,1012 3218,2501 4278,4338 2070,3591 2329,8174 730,12907 -785,2324 265,4379 1377,6555 1195,2338 2430,4755 1141,7509 -410,876 -1736,1294 -3271,1777 -2073,653 -4422,1392 -5592,3442 -1556,2712 -1919,6384 -2239,9624 -374,3776 -696,7037 -2887,7250 -310,32 -623,-34 -939,-182l0 0c-1683,-787 -3437,-3896 -5142,-6918 -1858,-3291 -3779,-6696 -5448,-6742 -639,-18 -1161,172 -1614,476l0 -182c455,-286 979,-462 1618,-444 226,6 454,66 683,174zm4164 -39584c-1095,354 -2184,744 -3264,1132 -1103,396 -2166,777 -3201,1106l0 -158c1018,-325 2065,-700 3150,-1090 938,-336 1882,-675 2832,-990l483 0z"/>
   <path class="fil0" d="M2357 39456c1494,699 3051,3171 4685,5766 1954,3102 3973,6309 5798,6085 2044,-251 2477,-3252 2978,-6728 414,-2868 883,-6120 2338,-8583 1113,-1898 3231,-2660 5100,-3333 1408,-507 2624,-945 3006,-1761 1223,-2614 165,-4971 -857,-7249 -908,-2023 -1847,-4115 -1181,-6370 1306,-4424 936,-8720 -1043,-12097 -1435,-2450 -3656,-4291 -6209,-5186l432 0c2425,951 4526,2753 5907,5111 1999,3412 2375,7750 1057,12215 -650,2201 277,4267 1174,6265 1036,2310 2108,4698 856,7374 -409,874 -1652,1321 -3091,1839 -1845,664 -3936,1417 -5021,3268 -1440,2438 -1907,5674 -2319,8529 -510,3536 -951,6591 -3108,6855 -351,43 -705,-30 -1063,-197l0 0c-1601,-750 -3263,-3389 -4881,-5957 -1801,-2861 -3665,-5820 -5306,-5891 -638,-27 -1156,158 -1609,450l0 -179c454,-277 976,-449 1615,-421 246,11 493,78 742,195zm5532 -39456c-1854,454 -3698,1085 -5516,1707 -814,279 -1602,548 -2373,795l0 -158c755,-242 1527,-507 2324,-779 1595,-546 3271,-1119 4982,-1565l583 0z"/>
   <path class="fil0" d="M2391 39394c1463,684 2980,2947 4572,5323 1930,2881 3927,5861 5733,5617 2034,-274 2528,-3174 3101,-6532 456,-2677 973,-5710 2368,-8034 1069,-1797 3057,-2564 4812,-3242 1360,-525 2535,-978 2918,-1796 1207,-2581 230,-4927 -716,-7196 -823,-1976 -1675,-4021 -1079,-6208 1167,-4288 741,-8460 -1202,-11746 -1644,-2783 -4314,-4796 -7325,-5525l13 -55 -253 0c80,18 160,36 240,55l13 -55 372 0c2907,805 5469,2794 7070,5503 1963,3322 2395,7535 1216,11863 -581,2137 260,4157 1074,6111 958,2299 1949,4676 713,7317 -408,872 -1609,1336 -3000,1872 -1732,669 -3694,1427 -4737,3179 -1380,2300 -1895,5319 -2349,7982 -582,3417 -1086,6367 -3229,6656 -375,50 -756,-27 -1140,-207l0 0c-1557,-728 -3169,-3134 -4738,-5475 -1773,-2645 -3605,-5380 -5232,-5464 -637,-33 -1153,148 -1606,433l0 -178c455,-270 975,-438 1614,-405 257,13 517,85 777,207zm6684 -39394c-2469,431 -4907,1247 -7184,2009 -647,217 -1275,427 -1891,625l0 -158c601,-193 1213,-398 1844,-610 2043,-684 4216,-1411 6427,-1866l804 0z"/>
   <path class="fil0" d="M2433 39335c1427,667 2900,2721 4445,4875 1910,2662 3885,5414 5674,5151 2029,-298 2589,-3102 3238,-6348 496,-2480 1058,-5292 2384,-7474 1027,-1691 2884,-2463 4523,-3144 1313,-545 2447,-1017 2831,-1837 1193,-2550 295,-4889 -573,-7151 -740,-1928 -1505,-3921 -980,-6037 2229,-8979 -2781,-15419 -8625,-16921l19 -72 -19 72c-4657,-1196 -9619,436 -13997,1875 -461,151 -911,299 -1353,442l0 -158c427,-138 861,-281 1306,-427 2710,-891 5644,-1855 8596,-2181l3884 0c536,68 1071,168 1601,304 5916,1518 10986,8029 8734,17102 -514,2070 243,4041 974,5947 880,2291 1789,4661 569,7269 -409,873 -1568,1354 -2910,1912 -1617,672 -3449,1434 -4452,3083 -1312,2160 -1871,4957 -2364,7426 -660,3301 -1230,6153 -3364,6467 -406,59 -817,-24 -1232,-218l0 0c-1509,-706 -3067,-2879 -4586,-4995 -1742,-2428 -3543,-4938 -5153,-5034 -634,-38 -1149,138 -1603,413l0 -176c456,-262 974,-426 1612,-387 272,16 546,93 821,222z"/>
   <path class="fil0" d="M2484 39279c1386,648 2811,2491 4305,4422 1890,2444 3845,4971 5619,4687 2025,-324 2652,-3026 3378,-6155 532,-2288 1134,-4882 2396,-6922 984,-1590 2712,-2364 4236,-3046 1265,-566 2357,-1055 2743,-1879 1181,-2523 362,-4859 -429,-7118 -657,-1874 -1336,-3813 -881,-5855 888,-3984 404,-7737 -1401,-10854 -1651,-2850 -4252,-4880 -7323,-5715 -4788,-1302 -9888,353 -14387,1814 -250,81 -497,161 -740,239l0 -158c228,-73 459,-148 694,-224 4519,-1467 9641,-3130 14472,-1816l-20 72 20 -72c3111,846 5743,2900 7414,5785 1824,3149 2315,6940 1418,10962 -446,2000 226,3918 876,5772 801,2288 1630,4653 423,7232 -409,874 -1525,1374 -2818,1952 -1504,674 -3210,1437 -4169,2988 -1249,2019 -1848,4600 -2377,6877 -739,3182 -1377,5930 -3501,6270 -442,70 -890,-20 -1342,-232l0 0c-1457,-681 -2957,-2621 -4420,-4512 -1710,-2210 -3478,-4495 -5069,-4605 -633,-43 -1146,127 -1601,390l0 -174c457,-251 974,-409 1611,-366 290,20 581,104 873,241z"/>
   <path class="fil0" d="M0 39087c465,-202 979,-333 1607,-272 1575,153 3247,1778 4863,3349 1849,1798 3761,3657 5505,3306 2036,-410 2891,-2813 3881,-5596 637,-1794 1297,-3648 2353,-5250 845,-1280 2186,-2046 3370,-2721 1120,-639 2086,-1191 2480,-2032 1162,-2483 579,-4848 14,-7135 -413,-1676 -840,-3409 -594,-5191 984,-7123 -2724,-13504 -9022,-15518 -4813,-1540 -10016,-173 -14457,1264l0 -158c4452,-1438 9663,-2798 14503,-1249 6367,2037 10119,8485 9125,15681 -242,1754 182,3473 591,5135 571,2313 1160,4704 -24,7234 -414,885 -1447,1475 -2541,2099 -1169,667 -2495,1424 -3319,2674 -1046,1586 -1703,3432 -2338,5217 -1005,2826 -1873,5267 -3992,5693 -1822,367 -3763,-1520 -5640,-3345 -1598,-1553 -3249,-3159 -4772,-3307 -621,-61 -1131,79 -1593,287l0 -165z"/>
   <path class="fil0" d="M0 38969c469,-178 982,-295 1606,-228 1538,166 3159,1560 4728,2908 1845,1585 3753,3224 5497,2848 2053,-444 2997,-2753 4089,-5426 649,-1588 1320,-3230 2298,-4676 795,-1175 2008,-1932 3079,-2599 1026,-640 1996,-1245 2395,-2097 1165,-2490 658,-4888 168,-7206 -336,-1588 -683,-3230 -505,-4904 374,-3510 -354,-6834 -2105,-9613 -1647,-2613 -4139,-4586 -7015,-5555l23 -71 -23 71c-4697,-1581 -9717,-456 -14235,1001l0 -158c4530,-1458 9560,-2575 14282,-985 2910,979 5430,2974 7095,5617 1770,2808 2505,6165 2127,9709 -175,1651 169,3280 503,4856 495,2344 1008,4766 -179,7302 -417,892 -1406,1508 -2452,2161 -1057,659 -2256,1406 -3033,2556 -970,1433 -1638,3067 -2284,4648 -1108,2713 -2066,5056 -4196,5516 -1817,392 -3754,-1272 -5627,-2881 -1551,-1333 -3156,-2711 -4646,-2873 -615,-66 -1124,57 -1590,240l0 -161z"/>
   <path class="fil0" d="M0 38841c474,-149 988,-248 1605,-174 1490,178 3054,1340 4566,2465 1851,1375 3763,2797 5516,2392 2082,-482 3126,-2703 4333,-5274 647,-1378 1316,-2801 2207,-4084 743,-1068 1827,-1810 2783,-2465 982,-672 1909,-1307 2315,-2174 1178,-2516 744,-4967 325,-7338 -261,-1479 -532,-3009 -419,-4556 492,-6737 -3215,-12692 -9220,-14818l25 -70 -25 70c-4678,-1655 -9612,-687 -14011,736l0 -158c4412,-1423 9358,-2384 14061,-719 6072,2149 9816,8165 9320,14970 -112,1529 157,3049 417,4519 423,2393 861,4868 -337,7428 -423,904 -1367,1550 -2366,2234 -991,679 -2017,1381 -2745,2427 -884,1272 -1550,2690 -2194,4062 -1224,2607 -2281,4859 -4436,5357 -1819,420 -3761,-1023 -5638,-2419 -1497,-1112 -3044,-2262 -4495,-2436 -608,-73 -1116,31 -1587,183l0 -158z"/>
   <path class="fil0" d="M0 38704c480,-115 994,-192 1604,-112 1429,189 2920,1121 4362,2022 1869,1168 3803,2375 5576,1937 2132,-526 3291,-2672 4632,-5156 625,-1158 1271,-2354 2062,-3457 687,-958 1599,-1647 2480,-2313 939,-711 1826,-1381 2242,-2270 1204,-2573 840,-5111 488,-7564 -192,-1340 -391,-2725 -339,-4113 122,-3272 -725,-6381 -2448,-8991 -1675,-2535 -4051,-4430 -6871,-5477 -3873,-1440 -8289,-1294 -13788,473l0 -158c5511,-1764 9945,-1904 13840,-456l-26 70 26 -70c2850,1059 5252,2973 6944,5535 1741,2637 2596,5776 2473,9079 -51,1375 147,2754 338,4086 355,2476 723,5036 -501,7650 -431,922 -1333,1604 -2288,2326 -872,659 -1774,1341 -2448,2280 -786,1096 -1429,2288 -2052,3441 -1302,2411 -2531,4689 -4728,5231 -1835,454 -3796,-771 -5692,-1956 -1428,-892 -2905,-1815 -4302,-2000 -599,-78 -1107,2 -1584,118l0 -155z"/>
   <path class="fil0" d="M13342 3998c-4751,-1930 -9635,-1238 -13342,-56l0 -157c3727,-1182 8627,-1865 13398,74l1 0c2747,1128 5098,3016 6797,5457 1713,2463 2686,5383 2814,8445 36,858 115,1731 192,2574 261,2856 530,5809 -842,8741 -467,997 -1306,1785 -2194,2619 -616,579 -1254,1178 -1792,1876 -493,638 -961,1297 -1415,1934 -1669,2349 -3247,4567 -5665,5246 -1958,549 -4061,-257 -6094,-1036 -1196,-459 -2433,-933 -3622,-1122 -576,-92 -1087,-76 -1578,-50l0 -151c497,-26 1014,-42 1602,52 1204,192 2449,669 3652,1131 2010,770 4089,1567 6000,1031 2367,-664 3929,-2861 5583,-5188 454,-638 924,-1298 1418,-1939 546,-707 1188,-1310 1809,-1893 877,-824 1705,-1602 2160,-2574 1354,-2895 1087,-5827 829,-8663 -78,-846 -157,-1720 -193,-2582 -127,-3033 -1091,-5926 -2788,-8365 -1682,-2417 -4010,-4287 -6730,-5404l0 0z"/>
   <path class="fil0" d="M13119 4392c-3934,-1676 -8534,-1778 -13119,-321l0 -158c4605,-1453 9223,-1344 13178,341l0 0c5473,2349 9193,7541 9708,13546 25,296 52,593 79,890 302,3355 614,6824 -972,10214 -513,1096 -1357,1985 -2250,2926 -458,482 -932,981 -1362,1514 -197,245 -392,489 -587,733 -2008,2514 -3905,4889 -6642,5700 -2161,649 -4494,21 -6750,-586 -931,-250 -1894,-509 -2827,-673 -531,-93 -1021,-122 -1495,-149l-80 -5 0 -151 89 6c478,27 972,56 1512,151 940,165 1906,425 2840,676 2236,601 4548,1223 6668,587 2692,-798 4575,-3155 6568,-5650 194,-244 390,-489 587,-733 434,-538 910,-1039 1370,-1523 884,-933 1720,-1813 2223,-2887 1569,-3353 1259,-6802 958,-10137 -26,-297 -53,-594 -79,-890 -510,-5950 -4201,-11096 -9617,-13421l0 0z"/>
   <path class="fil0" d="M12672 5181c-4127,-1932 -8633,-2110 -12672,-843l0 -158c4062,-1263 8588,-1076 12736,865 8833,4133 12656,14682 8523,23515 -3787,8091 -12956,11977 -21259,9396l0 -157c8244,2587 17361,-1266 21122,-9303 4099,-8757 308,-19217 -8450,-23315z"/>
   <path class="fil1" d="M5794 19880c327,153 561,424 675,738 114,315 108,673 -45,1000 -153,327 -424,561 -739,675 -314,114 -673,108 -999,-45 -327,-153 -561,-424 -675,-739 -114,-314 -108,-673 45,-999 153,-327 424,-561 738,-675 315,-114 673,-108 1000,45zm545 785c-102,-281 -311,-524 -604,-661 -292,-137 -613,-142 -894,-40 -281,102 -524,311 -661,604 -137,293 -142,613 -40,894 102,282 311,524 604,661 292,137 613,142 894,40 281,-102 524,-311 661,-604 137,-292 142,-613 40,-894z"/>
   <path class="fil1" d="M6043 19346c474,222 814,615 979,1072 166,456 157,975 -65,1449 -222,475 -615,814 -1071,979 -457,166 -976,157 -1450,-65 -474,-222 -814,-615 -979,-1071 -165,-456 -157,-976 65,-1450 222,-474 615,-814 1072,-979 456,-165 975,-157 1449,65zm850 1119c-154,-424 -468,-788 -908,-994 -440,-206 -921,-214 -1345,-60 -423,153 -787,468 -993,907 -206,440 -214,922 -61,1345 154,423 469,787 908,993 440,206 922,214 1345,61 423,-154 787,-468 993,-908 206,-440 214,-921 61,-1344z"/>
   <path class="fil1" d="M6253 18898c598,280 1026,776 1234,1351 209,575 198,1230 -82,1828 -280,598 -776,1026 -1351,1234 -575,209 -1230,198 -1828,-82 -598,-280 -1025,-776 -1234,-1351 -208,-575 -197,-1230 82,-1828 280,-598 776,-1025 1351,-1234 575,-208 1230,-197 1828,82zm1105 1398c-197,-542 -600,-1009 -1164,-1273 -563,-263 -1180,-274 -1722,-77 -542,196 -1009,599 -1273,1163 -264,563 -274,1180 -77,1722 196,542 599,1009 1163,1273 563,264 1180,274 1722,78 542,-197 1009,-600 1273,-1163 264,-564 274,-1181 78,-1723z"/>
   <path class="fil1" d="M6463 18451c721,337 1238,935 1489,1630 252,694 238,1484 -99,2206 -338,721 -936,1238 -1630,1489 -694,252 -1485,239 -2206,-99 -722,-338 -1238,-936 -1490,-1630 -251,-694 -238,-1485 99,-2206 338,-722 936,-1238 1631,-1490 694,-251 1484,-238 2206,100zm1360 1677c-240,-661 -732,-1231 -1419,-1553 -687,-321 -1440,-334 -2100,-94 -661,239 -1231,731 -1553,1418 -321,687 -334,1440 -94,2101 239,661 731,1230 1418,1552 687,322 1440,334 2101,95 661,-240 1230,-732 1552,-1419 322,-687 334,-1439 95,-2100z"/>
   <path class="fil1" d="M6672 18003c845,395 1450,1096 1745,1909 295,813 279,1739 -116,2584 -396,845 -1097,1450 -1910,1745 -813,295 -1739,279 -2584,-116 -845,-396 -1450,-1097 -1745,-1910 -295,-813 -279,-1739 117,-2584 395,-845 1096,-1450 1909,-1745 813,-294 1739,-279 2584,117zm1616 1956c-283,-780 -863,-1452 -1674,-1832 -811,-379 -1699,-394 -2479,-111 -780,282 -1452,863 -1832,1674 -379,810 -394,1698 -111,2478 282,780 863,1452 1674,1832 810,379 1698,394 2478,112 780,-283 1452,-863 1832,-1674 379,-811 394,-1699 112,-2479z"/>
   <path class="fil1" d="M7091 17107c1093,511 1875,1417 2256,2468 381,1051 361,2248 -150,3340 -512,1093 -1418,1875 -2469,2256 -1051,381 -2247,361 -3340,-150 -1093,-512 -1875,-1418 -2256,-2469 -381,-1051 -361,-2247 151,-3340 511,-1093 1417,-1875 2468,-2256 1051,-381 2248,-361 3340,151zm2126 2515c-368,-1018 -1126,-1895 -2184,-2390 -1058,-496 -2217,-515 -3235,-146 -1018,369 -1895,1126 -2390,2184 -496,1059 -515,2217 -146,3235 369,1018 1126,1896 2184,2391 1059,495 2217,514 3235,145 1018,-368 1895,-1126 2391,-2184 495,-1058 514,-2217 145,-3235z"/>
   <path class="fil1" d="M7301 16659c1216,569 2087,1577 2511,2748 424,1170 402,2502 -168,3718 -569,1216 -1577,2087 -2747,2511 -1170,424 -2502,402 -3719,-168 -1216,-569 -2087,-1577 -2511,-2747 -424,-1170 -401,-2502 168,-3719 569,-1216 1577,-2087 2748,-2511 1170,-424 2502,-401 3718,168zm2381 2795c-412,-1137 -1258,-2117 -2439,-2670 -1182,-553 -2477,-575 -3614,-163 -1136,412 -2116,1258 -2669,2440 -554,1182 -575,2476 -163,3613 412,1137 1258,2117 2440,2670 1182,553 2476,574 3613,162 1137,-412 2116,-1257 2670,-2439 553,-1182 574,-2477 162,-3613z"/>
   <path class="fil1" d="M7930 15315c1587,743 2723,2059 3277,3586 553,1527 524,3265 -219,4853 -743,1587 -2059,2723 -3586,3277 -1527,553 -3265,524 -4853,-219 -1067,-499 -1930,-1258 -2549,-2165l0 -251c612,965 1497,1771 2608,2291 1553,727 3253,756 4747,214 1494,-541 2782,-1653 3508,-3206 727,-1553 756,-3253 214,-4747 -541,-1494 -1653,-2781 -3206,-3508 -1553,-727 -3253,-755 -4747,-214 -1258,456 -2370,1317 -3124,2505l0 -250c766,-1124 1854,-1941 3077,-2384 1527,-554 3265,-525 4853,218z"/>
   <path class="fil1" d="M8139 14867c1712,801 2936,2219 3533,3866 596,1646 565,3519 -236,5230 -801,1712 -2219,2936 -3865,3533 -1646,596 -3520,565 -5231,-236 -932,-436 -1720,-1055 -2340,-1795l0 -218c623,782 1431,1436 2398,1888 1677,785 3513,816 5126,231 1613,-584 3003,-1784 3787,-3461 785,-1677 816,-3513 231,-5126 -584,-1612 -1784,-3002 -3461,-3787 -1677,-785 -3513,-815 -5126,-231 -1142,414 -2172,1137 -2955,2119l0 -218c785,-935 1794,-1627 2909,-2030 1646,-597 3519,-566 5230,235z"/>
   <path class="fil1" d="M8349 14419c1835,859 3148,2380 3788,4145 639,1765 606,3774 -253,5609 -859,1835 -2380,3148 -4145,3788 -1765,639 -3774,606 -5609,-253 -818,-383 -1533,-898 -2130,-1507l0 -199c605,643 1340,1184 2189,1581 1800,843 3771,876 5503,248 1732,-628 3225,-1916 4067,-3716 843,-1801 876,-3772 248,-5504 -628,-1732 -1916,-3224 -3716,-4067 -1801,-842 -3772,-875 -5504,-248 -1047,380 -2006,1000 -2787,1830l0 -199c777,-793 1718,-1390 2740,-1760 1765,-640 3774,-606 5609,252z"/>
   <path class="fil1" d="M8768 13524c2082,974 3573,2700 4298,4703 726,2003 688,4283 -286,6365 -975,2082 -2701,3573 -4704,4299 -2003,725 -4283,687 -6365,-287 -625,-293 -1197,-653 -1711,-1069l0 -178c527,439 1119,818 1769,1122 2048,958 4291,996 6260,282 1970,-714 3668,-2179 4626,-4227 958,-2048 996,-4290 282,-6260 -714,-1970 -2179,-3667 -4227,-4626 -2048,-958 -4290,-996 -6260,-282 -886,321 -1717,795 -2450,1404l0 -178c724,-585 1537,-1041 2403,-1355 2003,-726 4283,-688 6365,287z"/>
   <path class="fil1" d="M8978 13076c2206,1032 3784,2861 4553,4983 769,2122 729,4537 -303,6743 -1033,2206 -2861,3784 -4983,4553 -2122,769 -4538,729 -6744,-303 -538,-252 -1040,-552 -1501,-892l0 -172c476,360 997,676 1560,939 2171,1016 4549,1056 6638,299 2089,-757 3889,-2311 4905,-4483 1016,-2171 1056,-4549 299,-6638 -757,-2088 -2311,-3888 -4483,-4905 -2171,-1016 -4549,-1056 -6638,-299 -814,295 -1584,712 -2281,1238l0 -172c686,-505 1440,-907 2234,-1195 2122,-769 4538,-729 6744,304z"/>
   <path class="fil1" d="M9187 12628c2330,1090 3997,3021 4809,5262 813,2241 770,4792 -320,7121 -1091,2330 -3022,3997 -5263,4809 -2241,813 -4792,770 -7121,-320 -457,-214 -888,-460 -1292,-734l0 -168c420,292 871,553 1350,777 2295,1074 4809,1116 7016,316 2208,-800 4111,-2443 5185,-4738 1074,-2295 1116,-4808 316,-7016 -800,-2208 -2443,-4110 -4738,-5185 -2295,-1074 -4808,-1116 -7016,-316 -746,271 -1457,637 -2113,1093l0 -167c644,-438 1339,-791 2066,-1055 2241,-812 4792,-769 7121,321z"/>
   <path class="fil1" d="M9397 12180c2453,1148 4209,3182 5064,5542 856,2359 811,5046 -337,7499 -1149,2453 -3182,4209 -5542,5064 -2360,856 -5047,811 -7500,-337 -377,-177 -738,-375 -1082,-591l0 -164c361,232 741,443 1141,630 2418,1132 5067,1176 7394,333 2327,-843 4332,-2574 5464,-4993 1132,-2419 1176,-5068 333,-7395 -843,-2326 -2575,-4331 -4993,-5463 -2419,-1132 -5068,-1177 -7395,-334 -680,247 -1333,570 -1944,963l0 -164c599,-377 1235,-688 1897,-928 2360,-855 5047,-810 7500,338z"/>
   <path class="fil1" d="M9607 11732c2577,1206 4421,3342 5319,5821 899,2479 851,5301 -355,7878 -1206,2577 -3342,4421 -5821,5319 -2479,899 -5300,851 -7877,-355 -301,-140 -592,-294 -873,-459l0 -161c298,179 609,345 931,496 2543,1189 5327,1236 7772,350 2446,-887 4554,-2706 5744,-5249 1189,-2542 1236,-5326 350,-7772 -887,-2446 -2706,-4553 -5249,-5743 -2542,-1190 -5326,-1237 -7772,-350 -617,223 -1212,506 -1776,845l0 -161c551,-324 1130,-597 1729,-814 2479,-898 5301,-851 7878,355z"/>
   <path class="fil1" d="M9816 11284c2701,1264 4634,3503 5575,6101 942,2597 892,5555 -372,8255 -1263,2701 -3502,4634 -6100,5575 -2598,942 -5555,892 -8256,-372 -227,-106 -447,-219 -663,-338l0 -158c234,132 474,256 721,372 2667,1247 5586,1296 8151,367 2565,-930 4775,-2838 6023,-5504 1247,-2666 1296,-5586 367,-8151 -930,-2564 -2838,-4775 -5504,-6022 -2666,-1248 -5586,-1297 -8151,-367 -554,201 -1092,447 -1607,738l0 -158c501,-278 1023,-515 1560,-710 2598,-941 5556,-892 8256,372z"/>
   <path class="fil1" d="M10235 10388c2948,1380 5058,3824 6086,6660 1028,2835 974,6064 -406,9012 -1379,2948 -3823,5057 -6659,6085 -2836,1028 -6064,974 -9012,-406 -82,-38 -163,-78 -244,-118l0 -154c100,51 200,100 302,147 2914,1364 6104,1417 8907,402 2803,-1016 5218,-3101 6581,-6015 1364,-2913 1417,-6104 402,-8907 -1016,-2802 -3101,-5218 -6015,-6581 -2914,-1364 -6104,-1417 -8907,-401 -433,157 -857,340 -1270,547l0 -154c398,-197 806,-372 1223,-523 2836,-1028 6064,-973 9012,406z"/>
   <path class="fil1" d="M10445 9940c3072,1438 5270,3984 6341,6939 1071,2955 1015,6318 -423,9390 -1437,3072 -3984,5270 -6939,6341 -2955,1071 -6318,1015 -9390,-423l-34 -16 0 -153c31,15 62,30 93,44 3037,1422 6363,1477 9284,419 2922,-1059 5440,-3233 6861,-6270 1422,-3038 1477,-6363 418,-9285 -1058,-2922 -3232,-5440 -6269,-6861 -3038,-1421 -6363,-1477 -9285,-418 -375,136 -742,290 -1102,462l0 -153c345,-162 697,-309 1055,-439 2955,-1071 6318,-1014 9390,423z"/>
   <path class="fil1" d="M10655 9492c3195,1496 5482,4145 6596,7219 1114,3073 1055,6572 -440,9768 -1495,3195 -4144,5482 -7218,6596 -3018,1094 -6445,1057 -9593,-360l0 -151c3129,1427 6543,1470 9546,381 3041,-1102 5661,-3364 7140,-6525 1479,-3161 1537,-6622 435,-9663 -1102,-3040 -3364,-5661 -6525,-7140 -3161,-1479 -6622,-1537 -9663,-435 -316,114 -627,242 -933,381l0 -151c291,-131 587,-251 886,-360 3074,-1114 6573,-1055 9769,440z"/>
   <path class="fil1" d="M11074 8597c3443,1611 5907,4465 7107,7777 1200,3311 1137,7081 -474,10524 -1611,3443 -4465,5907 -7777,7107 -3122,1131 -6652,1140 -9930,-213l0 -149c3260,1361 6775,1359 9883,232 3278,-1188 6104,-3627 7699,-7035 1595,-3409 1658,-7141 469,-10420 -1188,-3278 -3627,-6104 -7035,-7699 -3409,-1595 -7141,-1657 -10420,-469 -200,73 -399,150 -596,232l0 -149c182,-74 365,-146 549,-212 3312,-1201 7082,-1138 10525,474z"/>
   <path class="fil1" d="M11703 7253c3814,1785 6543,4946 7873,8615 1329,3669 1259,7845 -525,11659 -1785,3814 -4947,6543 -8616,7873 -3280,1188 -6965,1258 -10435,-16l0 -147c3452,1281 7123,1217 10388,33 3636,-1317 6769,-4022 8538,-7802 1768,-3779 1838,-7917 520,-11553 -1317,-3636 -4022,-6769 -7802,-8537 -3779,-1769 -7918,-1838 -11553,-521 -31,11 -61,23 -91,34l0 -147 44 -16c3669,-1330 7845,-1260 11659,525z"/>
   <path class="fil1" d="M12122 6357c4061,1901 6968,5267 8383,9174 1416,3907 1342,8354 -559,12415 -1900,4061 -5267,6968 -9174,8384 -3386,1227 -7177,1334 -10772,104l0 -146c3577,1236 7354,1134 10725,-88 3874,-1404 7212,-4286 9096,-8312 1885,-4027 1959,-8437 555,-12310 -1404,-3874 -4286,-7212 -8312,-9096 -3942,-1845 -8251,-1954 -12064,-641l0 -146c3835,-1308 8162,-1191 12122,662z"/>
  </g>
 </g>
</svg>