<?xml version="1.0" encoding="UTF-8"?>
<!DOCTYPE svg PUBLIC "-//W3C//DTD SVG 1.1//EN" "http://www.w3.org/Graphics/SVG/1.1/DTD/svg11.dtd">
<!-- Creator: CorelDRAW X7 -->
<svg xmlns="http://www.w3.org/2000/svg" xml:space="preserve" width="1.26606in" height="2.55759in" version="1.1" style="shape-rendering:geometricPrecision; text-rendering:geometricPrecision; image-rendering:optimizeQuality; fill-rule:evenodd; clip-rule:evenodd" viewBox="0 0 12661 25576" xmlns:xlink="http://www.w3.org/1999/xlink">
 <defs>
  <style type="text/css">
   <![CDATA[
    .fil0 {fill:#C7C7C7}
   ]]>
  </style>
 </defs>
 <g id="Layer_x0020_1">
  <metadata id="CorelCorpID_0Corel-Layer"/>
  <path class="fil0" d="M12661 497c-699,-39 -1384,-113 -2028,-182 -1721,-186 -3208,-347 -3848,293 -2210,2210 -1620,5019 -1033,7740 -514,-2655 -967,-5379 1213,-7560 689,-688 2175,-550 3897,-389 573,54 1179,110 1799,140l0 151c-625,-30 -1236,-87 -1813,-141 -1684,-158 -3138,-294 -3777,346 -2190,2190 -1648,4975 -1124,7668l12 63c-456,-2647 -886,-5374 1292,-7551 687,-687 2140,-574 3824,-443 506,39 1040,80 1586,102l0 150c-550,-22 -1088,-63 -1598,-103 -1646,-128 -3068,-238 -3706,400 -2157,2157 -1685,4897 -1228,7547l30 172c-394,-2639 -796,-5365 1378,-7539 685,-685 2105,-599 3750,-499 440,27 902,55 1374,70l0 150c-476,-15 -940,-43 -1383,-70 -1608,-98 -2998,-182 -3635,455 -2126,2126 -1723,4821 -1333,7428l39 262 -9 -72c-326,-2601 -664,-5291 1483,-7438 684,-683 2071,-624 3677,-555 379,16 768,33 1161,41l0 149c-401,-8 -793,-24 -1168,-40 -1570,-67 -2927,-125 -3563,511 -2095,2095 -1763,4748 -1441,7314 294,2345 598,4770 -970,6735 -2462,3085 -3790,6479 -3862,9774l-151 0c60,-2732 973,-5530 2672,-8166 -1788,2632 -2780,5428 -2906,8166l-151 0c124,-2702 1080,-5458 2804,-8059 -1810,2597 -2843,5351 -3032,8059l-151 0c185,-2670 1181,-5384 2925,-7949 -1828,2562 -2898,5274 -3148,7949l-150 0c243,-2644 1280,-5322 3049,-7857 -1850,2532 -2960,5209 -3267,7857l-151 0c386,-3367 2055,-6778 4884,-9883 1860,-2042 1312,-4577 733,-7260 -600,-2777 -1220,-5649 1062,-7931 691,-691 2210,-527 3970,-337 639,70 1319,143 2012,182l0 150zm-2466 25079c-1012,-2168 -1519,-4515 -1519,-6861 0,-3800 1329,-7601 3985,-10646l0 210c-2565,2999 -3847,6718 -3847,10436 0,2348 511,4695 1533,6861l-152 0zm1098 0c-1086,-2151 -1629,-4506 -1629,-6861 0,-3194 999,-6388 2997,-9073l0 232c-1906,2630 -2859,5736 -2859,8841 0,2356 548,4713 1645,6861l-154 0zm1368 -580c-1010,-1965 -1515,-4123 -1515,-6281 0,-2157 505,-4315 1515,-6280l0 307c-918,1879 -1378,3926 -1378,5973 0,2047 459,4094 1378,5974l0 307zm0 -2643c-352,-1185 -528,-2411 -528,-3638 0,-1226 176,-2452 528,-3638l0 519c-260,1023 -390,2071 -390,3119 0,1049 130,2097 390,3120l0 518zm0 -2731c-23,-302 -34,-604 -34,-907 0,-302 11,-604 34,-906l0 1813zm0 -13439c-51,49 -102,99 -152,150 -5194,5193 -6436,12863 -3729,19243l-162 0c-2698,-6422 -1437,-14127 3785,-19350 85,-85 171,-169 258,-252l0 209zm0 -1040c-257,189 -500,392 -725,617 -2614,2615 -3496,5958 -4349,9191 -76,288 -152,576 -229,863 -884,3296 -701,6699 423,9762l-161 0c-1058,-2914 -1273,-6130 -539,-9272 -773,2744 -803,5607 -83,8313 86,324 183,643 289,959l-158 0c-102,-303 -194,-610 -276,-921 -771,-2894 -691,-5967 231,-8886 258,-818 480,-1664 695,-2482 727,-2769 1479,-5633 3765,-7919 328,-328 706,-599 1117,-838l0 174c-372,223 -713,473 -1011,770 -1783,1783 -2623,3932 -3254,6112 711,-2132 1691,-4188 3434,-5932 257,-257 535,-485 831,-696l0 185zm0 -1179c-617,237 -1167,521 -1583,937 -2007,2007 -2528,4513 -3033,6937 -275,1323 -560,2690 -1081,3976 -1227,3031 -1490,6238 -760,9275 39,163 81,326 126,487l-156 0c-41,-150 -80,-301 -116,-452 -679,-2823 -508,-5792 490,-8632 -1195,3029 -1393,6193 -682,9084l-155 0c-701,-2879 -509,-6023 658,-9040 -1274,2954 -1608,6056 -962,9019l4 21 -153 0c-637,-2931 -325,-5996 899,-8923 -1353,2956 -1727,6064 -1193,8923l-153 0c-583,-3156 -73,-6610 1626,-9833 824,-1564 1011,-3322 1192,-5022 251,-2365 511,-4811 2484,-6784 586,-586 1520,-820 2548,-1008l0 152c-1021,187 -1888,408 -2442,962 -1935,1935 -2192,4354 -2441,6694l-27 255c331,-2361 679,-4799 2648,-6769 544,-544 1357,-810 2262,-1023l0 154c-869,206 -1645,465 -2156,975 -1941,1941 -2280,4365 -2609,6709l-13 96c406,-2318 872,-4694 2803,-6625 497,-498 1195,-786 1975,-1019l0 156c-743,226 -1404,504 -1869,969 -1924,1924 -2372,4316 -2778,6642 480,-2271 1072,-4576 2958,-6462 447,-447 1034,-745 1689,-991l0 160zm0 -1617l-86 7c-1380,101 -2573,188 -3214,830 -1968,1968 -1994,4439 -2020,6829 -21,1984 -43,4034 -1165,5797 -2005,3148 -2863,6505 -2507,9766l-151 0c-310,-2870 310,-5812 1814,-8622 -1710,2982 -2301,5943 -2078,8622l-153 0c-216,-2633 345,-5534 1968,-8461 -1608,2733 -2374,5652 -2225,8461l-150 0c-147,-2806 609,-5719 2195,-8451 -1684,2726 -2525,5637 -2448,8451l-150 0c-89,-3306 1074,-6742 3370,-9860 1359,-1845 1192,-4101 1030,-6282 -188,-2521 -381,-5128 1705,-7214 681,-681 2000,-678 3528,-675 242,0 488,1 737,-1l0 150c-249,2 -495,1 -737,1 -1495,-3 -2785,-6 -3422,631 -2038,2037 -1847,4610 -1662,7097 12,154 23,307 34,461l-13 -266c-116,-2484 -238,-5054 1821,-7112 680,-680 1966,-707 3454,-738 173,-3 348,-7 525,-12l0 150c-176,5 -350,9 -522,12 -1456,30 -2713,56 -3351,694 -2012,2012 -1892,4547 -1777,6999 8,164 16,328 23,493l-5 -295c-46,-2450 -94,-4984 1939,-7017 681,-681 1933,-738 3382,-805 103,-5 207,-10 311,-15l0 150c-102,5 -203,10 -304,14 -1418,66 -2643,123 -3283,762 -1988,1988 -1941,4490 -1895,6909 3,165 6,331 9,497l3 -293c26,-2420 53,-4922 2063,-6933 682,-681 1900,-771 3310,-874l97 -7 0 150z"/>
 </g>
</svg>