<?xml version="1.0" encoding="UTF-8"?>
<!DOCTYPE svg PUBLIC "-//W3C//DTD SVG 1.1//EN" "http://www.w3.org/Graphics/SVG/1.1/DTD/svg11.dtd">
<!-- Creator: CorelDRAW X7 -->
<svg xmlns="http://www.w3.org/2000/svg" xml:space="preserve" width="2.62736in" height="5.18224in" version="1.1" style="shape-rendering:geometricPrecision; text-rendering:geometricPrecision; image-rendering:optimizeQuality; fill-rule:evenodd; clip-rule:evenodd"
viewBox="0 0 26274 51822"
 xmlns:xlink="http://www.w3.org/1999/xlink">
 <defs>
  <style type="text/css">
   <![CDATA[
    .fil0 {fill:#E6AD62}
    .fil1 {fill:#E6AD62;fill-rule:nonzero}
   ]]>
  </style>
 </defs>
 <g id="Layer_x0020_1">
  <metadata id="CorelCorpID_0Corel-Layer"/>
  <g id="_2857975025360">
   <path class="fil0" d="M0 167c3207,1547 5843,4358 8405,7092 1591,1696 3093,3299 4671,4535 2234,1749 4836,2025 7130,2269 3306,351 5917,628 5917,5112 0,2595 -1816,4061 -3920,5759 -1646,1328 -3349,2702 -4413,4803 -910,1795 652,5965 2306,10380 1741,4647 3542,9454 2066,10943 -1594,1609 -3833,-263 -6425,-2431 -2225,-1860 -4747,-3969 -7413,-4354 -1803,-259 -3965,2162 -5871,4300 -880,987 -1729,1939 -2453,2518l0 192c745,-569 1614,-1543 2565,-2610 1881,-2109 4012,-4502 5737,-4251 2625,379 5129,2473 7338,4321 2649,2215 4937,4129 6629,2421 1543,-1558 -275,-6410 -2032,-11102 -1570,-4190 -3193,-8523 -2313,-10260 1050,-2071 2740,-3435 4374,-4753 2044,-1650 3976,-3209 3976,-5876 0,-4619 -2805,-4917 -6052,-5261 -2274,-242 -4853,-515 -7053,-2238 -1569,-1229 -3068,-2828 -4654,-4520 -2590,-2762 -5254,-5604 -8515,-7156l0 167z"/>
   <path class="fil0" d="M0 576c3273,1514 5961,4330 8574,7067 1519,1591 2954,3093 4449,4282 2152,1706 4639,2052 6833,2359 3229,450 5780,806 5780,5232 0,2533 -1744,3980 -3763,5657 -1565,1298 -3182,2641 -4202,4666 -887,1773 551,5780 2073,10023 1613,4498 3282,9148 1813,10620 -1568,1575 -3758,-191 -6293,-2236 -2148,-1733 -4584,-3698 -7155,-4046 -1753,-233 -3846,2061 -5693,4084 -865,947 -1700,1862 -2416,2419l0 191c737,-549 1592,-1484 2527,-2509 1822,-1996 3888,-4260 5562,-4036 2530,343 4948,2293 7081,4014 2592,2090 4829,3896 6494,2225 1535,-1539 -150,-6235 -1779,-10777 -1444,-4026 -2938,-8189 -2080,-9904 1006,-1997 2611,-3330 4164,-4618 1963,-1630 3818,-3170 3818,-5773 0,-4557 -2739,-4939 -5910,-5381 -2175,-304 -4640,-648 -6761,-2327 -1487,-1183 -2918,-2682 -4433,-4269 -2640,-2765 -5356,-5610 -8683,-7129l0 166z"/>
   <path class="fil0" d="M0 986c3335,1479 6073,4294 8733,7031 1450,1491 2819,2899 4236,4040 2069,1666 4443,2081 6538,2447 3152,551 5642,986 5642,5354 0,2466 -1670,3893 -3603,5545 -1486,1270 -3022,2583 -3994,4539 -869,1749 446,5597 1839,9671 1486,4345 3022,8838 1561,10290 -1541,1539 -3677,-118 -6150,-2038 -2075,-1610 -4428,-3436 -6908,-3740 -1701,-209 -3728,1958 -5517,3869 -850,908 -1670,1784 -2377,2320l0 190c728,-529 1568,-1426 2487,-2407 1764,-1886 3765,-4020 5389,-3823 2439,299 4774,2111 6834,3710 2529,1963 4714,3659 6348,2026 1528,-1519 -24,-6057 -1524,-10445 -1322,-3866 -2689,-7864 -1848,-9556 959,-1928 2483,-3232 3958,-4492 1880,-1607 3655,-3124 3655,-5659 0,-4494 -2672,-4962 -5766,-5502 -2077,-363 -4431,-775 -6470,-2416 -1410,-1136 -2776,-2541 -4222,-4028 -2687,-2764 -5452,-5609 -8841,-7091l0 165z"/>
   <path class="fil0" d="M0 1396c3411,1445 6208,4271 8925,7017 1368,1383 2661,2690 3991,3776 1984,1620 4243,2101 6237,2525 3078,655 5509,1172 5509,5486 0,2401 -1596,3809 -3444,5440 -1406,1240 -2860,2522 -3786,4405 -848,1724 345,5411 1609,9314 1357,4194 2761,8531 1306,9966 -1515,1504 -3600,-45 -6014,-1840 -2000,-1486 -4268,-3171 -6654,-3435 -1648,-183 -3610,1857 -5340,3656 -835,868 -1641,1706 -2339,2220l0 188c719,-507 1545,-1365 2447,-2304 1707,-1774 3642,-3787 5215,-3611 2347,260 4596,1932 6581,3407 2470,1836 4603,3422 6210,1826 1520,-1500 102,-5882 -1269,-10119 -1199,-3703 -2438,-7532 -1617,-9202 913,-1856 2355,-3128 3750,-4358 1797,-1586 3495,-3084 3495,-5553 0,-4436 -2608,-4991 -5628,-5633 -1977,-421 -4217,-897 -6173,-2495 -1324,-1081 -2614,-2384 -3979,-3765 -2744,-2772 -5568,-5626 -9032,-7074l0 163z"/>
   <path class="fil0" d="M0 1808c3497,1411 6359,4254 9139,7016 1279,1272 2488,2472 3723,3496 1898,1573 4042,2116 5933,2595 3006,762 5380,1364 5380,5627 0,2337 -1523,3727 -3286,5337 -1325,1209 -2696,2460 -3576,4269 -827,1700 244,5225 1377,8957 1228,4042 2497,8221 1052,9642 -1493,1467 -3527,26 -5882,-1641 -1923,-1363 -4104,-2907 -6396,-3132 -1596,-156 -3491,1757 -5163,3445 -819,828 -1611,1627 -2301,2120l0 186c711,-486 1521,-1305 2408,-2200 1648,-1664 3516,-3553 5041,-3401 2253,221 4416,1753 6325,3104 2410,1707 4491,3181 6074,1626 1510,-1485 227,-5708 -1014,-9792 -1075,-3541 -2187,-7201 -1386,-8848 868,-1784 2227,-3024 3542,-4225 1715,-1565 3335,-3043 3335,-5447 0,-4380 -2546,-5025 -5493,-5772 -1876,-476 -4002,-1014 -5874,-2566 -1230,-1019 -2436,-2218 -3713,-3486 -2806,-2788 -5696,-5659 -9245,-7072l0 162z"/>
   <path class="fil0" d="M0 2629c3703,1337 6718,4244 9645,7068 1073,1034 2085,2010 3110,2886 1719,1470 3627,2126 5310,2704 2869,987 5135,1766 5135,5939 0,2212 -1442,3633 -2969,5137 -1164,1146 -2368,2331 -3156,3990 -784,1649 44,4848 921,8236 969,3742 1970,7612 536,9001 -1445,1399 -3379,178 -5619,-1235 -1771,-1117 -3778,-2383 -5879,-2531 -1494,-105 -3177,1487 -4807,3027 -790,747 -1554,1468 -2227,1916l0 177c709,-452 1506,-1204 2331,-1984 1531,-1447 3270,-3086 4692,-2986 2064,146 4054,1401 5810,2508 2294,1447 4275,2696 5804,1216 1497,-1450 484,-5363 -495,-9147 -832,-3212 -1692,-6534 -932,-8133 777,-1635 1971,-2811 3126,-3949 1551,-1526 3015,-2968 3015,-5243 0,-4280 -2427,-5115 -5237,-6081 -1670,-574 -3564,-1225 -5262,-2676 -1021,-873 -2032,-1848 -3102,-2881 -2817,-2716 -5964,-5751 -9750,-7115l0 156z"/>
   <path class="fil0" d="M0 3046c3860,1329 7076,4389 9953,7128 949,903 1845,1756 2748,2540 1626,1413 3413,2117 4991,2739 2805,1106 5021,1980 5021,6115 0,2151 -1366,3555 -2811,5041 -1084,1113 -2204,2265 -2947,3847 -760,1621 -52,4656 697,7870 839,3594 1706,7311 275,8686 -1421,1365 -3308,256 -5492,-1028 -1693,-996 -3612,-2124 -5616,-2235 -1439,-79 -3060,1395 -4627,2821 -777,706 -1526,1388 -2192,1812l0 176c701,-429 1483,-1140 2293,-1877 1472,-1340 3144,-2855 4517,-2782 1968,109 3871,1228 5549,2215 2237,1315 4169,2451 5672,1006 1492,-1434 616,-5193 -232,-8828 -711,-3047 -1446,-6198 -708,-7772 732,-1560 1843,-2702 2918,-3806 1468,-1509 2855,-2934 2855,-5146 0,-4238 -2259,-5128 -5117,-6255 -1566,-617 -3341,-1317 -4947,-2712 -901,-782 -1796,-1634 -2743,-2536 -2901,-2761 -6145,-5848 -10057,-7178l0 159z"/>
   <path class="fil0" d="M0 3461c4008,1295 7334,4426 10308,7226 808,762 1572,1481 2339,2159 1529,1350 3194,2097 4662,2755 2747,1232 4917,2205 4917,6309 0,2091 -1289,3479 -2654,4949 -1003,1079 -2039,2195 -2736,3700 -737,1592 -148,4462 475,7501 708,3447 1439,7012 11,8373 -1399,1334 -3238,337 -5367,-817 -1615,-875 -3446,-1868 -5352,-1942 -1386,-51 -2941,1303 -4446,2616 -762,665 -1499,1308 -2157,1709l0 173c692,-405 1460,-1074 2256,-1768 1483,-1294 3016,-2632 4341,-2580 1872,73 3686,1057 5287,1924 2180,1182 4063,2203 5542,794 1488,-1419 748,-5025 33,-8513 -591,-2881 -1203,-5860 -486,-7407 686,-1483 1714,-2590 2709,-3661 1386,-1492 2694,-2901 2694,-5051 0,-4201 -2208,-5192 -5005,-6446 -1459,-654 -3113,-1396 -4624,-2731 -766,-676 -1529,-1395 -2336,-2155 -2998,-2822 -6351,-5980 -10411,-7276l0 159z"/>
   <path class="fil0" d="M0 3876c4183,1264 7636,4490 10721,7373 647,605 1258,1176 1873,1728 1427,1282 2965,2062 4323,2751 2694,1366 4822,2444 4822,6524 0,2032 -1213,3406 -2497,4861 -922,1044 -1875,2124 -2525,3549 -713,1561 -242,4264 257,7126 575,3303 1170,6718 -257,8067 -1378,1302 -3171,419 -5246,-603 -1536,-757 -3276,-1614 -5083,-1653 -1333,-27 -2823,1213 -4264,2414 -749,624 -1473,1226 -2124,1603l0 172c685,-381 1439,-1009 2220,-1660 1420,-1183 2889,-2404 4164,-2379 1774,38 3499,888 5020,1638 2126,1047 3962,1951 5416,577 1486,-1404 884,-4860 302,-8202 -473,-2713 -961,-5519 -268,-7038 641,-1405 1586,-2476 2500,-3511 1304,-1477 2535,-2872 2535,-4961 0,-4172 -2164,-5269 -4904,-6658 -1349,-684 -2878,-1460 -4291,-2729 -613,-551 -1224,-1121 -1870,-1726 -3109,-2905 -6589,-6156 -10824,-7420l0 157z"/>
   <path class="fil0" d="M5997 43369c-85,0 -171,1 -256,4 -1166,46 -2455,947 -3701,1818 -714,500 -1405,983 -2040,1285l0 165c666,-305 1383,-807 2126,-1327 1229,-858 2499,-1747 3621,-1790 1469,-58 2852,384 4188,810 1974,629 3679,1173 5069,-104 1493,-1373 1315,-4393 1142,-7315 -130,-2196 -265,-4468 351,-5884 503,-1159 1198,-2107 1870,-3023 1060,-1445 2061,-2810 2061,-4730 0,-4160 -2076,-5633 -4704,-7497 -1040,-739 -2117,-1502 -3188,-2519 -3360,-3187 -7472,-7088 -12536,-8288l0 155c5009,1200 9094,5075 12433,8243 1079,1023 2159,1790 3204,2531 2593,1839 4641,3292 4641,7375 0,1871 -987,3217 -2032,4641 -677,923 -1377,1878 -1887,3052 -630,1449 -500,3637 -363,5953 170,2886 347,5871 -1094,7195 -1326,1219 -2992,688 -4921,72 -1213,-387 -2578,-822 -3984,-822z"/>
   <path class="fil0" d="M5983 43285c-152,0 -304,4 -458,14 -1107,68 -2325,858 -3503,1622 -706,458 -1389,901 -2022,1178l0 163c662,-280 1370,-739 2104,-1215 1162,-753 2363,-1532 3430,-1598 1361,-85 2649,238 3893,550 1931,484 3598,903 4971,-347 1505,-1369 1472,-4255 1441,-7047 -24,-2108 -46,-4100 539,-5472 456,-1070 1067,-1968 1657,-2837 980,-1442 1906,-2805 1906,-4676 0,-4198 -2073,-5826 -4697,-7887 -898,-706 -1828,-1436 -2760,-2338 -3456,-3343 -7517,-6934 -12484,-8001l0 154c4915,1067 8947,4635 12379,7955 938,907 1871,1640 2772,2348 2592,2036 4639,3644 4639,7769 0,1825 -913,3169 -1879,4591 -595,875 -1209,1780 -1671,2863 -598,1401 -575,3408 -551,5533 31,2758 63,5610 -1392,6934 -1314,1196 -2945,786 -4833,312 -1116,-280 -2267,-568 -3481,-568z"/>
   <path class="fil0" d="M6028 43193c-237,0 -477,9 -719,31 -1045,91 -2189,771 -3295,1429 -702,417 -1380,819 -2014,1070l0 161c662,-253 1364,-670 2091,-1102 1091,-649 2220,-1320 3231,-1409 1248,-109 2433,101 3580,303 1815,321 3529,624 4891,-602 1523,-1371 1641,-4133 1756,-6804 82,-1911 159,-3716 710,-5035 407,-974 933,-1817 1441,-2632 902,-1446 1754,-2812 1754,-4641 0,-4272 -2095,-6082 -4746,-8373 -740,-639 -1505,-1300 -2277,-2062 -3353,-3309 -7416,-6748 -12431,-7713l0 153c4963,966 8996,4381 12325,7667 776,766 1543,1429 2285,2069 2622,2266 4693,4056 4693,8259 0,1786 -841,3135 -1731,4562 -511,820 -1040,1667 -1452,2653 -561,1343 -639,3162 -721,5087 -113,2640 -230,5369 -1707,6698 -1307,1178 -2909,894 -4764,566 -935,-165 -1896,-335 -2900,-335z"/>
   <path class="fil0" d="M6228 43087c-373,0 -751,17 -1135,62 -978,113 -2043,684 -3072,1236 -702,376 -1381,740 -2021,964l0 159c666,-226 1367,-602 2092,-991 1017,-545 2069,-1109 3018,-1219 1124,-131 2199,-27 3238,73 1790,172 3481,335 4839,-875 1555,-1384 1831,-4037 2098,-6603 177,-1700 345,-3306 855,-4556 355,-869 794,-1645 1219,-2394 826,-1461 1607,-2841 1607,-4639 0,-4403 -2156,-6433 -4886,-9004 -552,-520 -1124,-1058 -1702,-1641 -4306,-4339 -8274,-6727 -12378,-7424l0 153c4063,697 7998,3070 12272,7377 579,585 1152,1124 1705,1645 2704,2545 4839,4556 4839,8894 0,1759 -771,3122 -1588,4565 -427,753 -868,1533 -1227,2411 -519,1270 -687,2886 -865,4597 -264,2538 -537,5161 -2049,6507 -1309,1166 -2892,1014 -4724,838 -694,-67 -1404,-135 -2135,-135z"/>
   <path class="fil0" d="M0 7239c5363,708 9538,4023 12164,6789 3047,3209 5678,5981 5678,10959 0,1780 -655,3241 -1348,4788 -246,549 -501,1116 -732,1711 -390,1007 -670,2126 -966,3311 -612,2446 -1245,4975 -2918,6430 -1371,1191 -2985,1330 -4854,1492 -762,65 -1550,134 -2364,280 -808,146 -1676,500 -2514,843 -713,290 -1442,588 -2146,764l0 155c726,-178 1472,-482 2202,-780 832,-340 1692,-691 2485,-834 807,-145 1591,-213 2350,-279 1816,-156 3532,-305 4939,-1528 1710,-1485 2348,-4038 2965,-6507 295,-1180 574,-2294 962,-3293 229,-591 483,-1157 728,-1703 700,-1563 1361,-3038 1361,-4850 0,-5038 -2650,-7830 -5719,-11063 -2646,-2787 -6857,-6129 -12273,-6837l0 152z"/>
   <path class="fil0" d="M0 7664c4391,488 8650,2763 12110,6495 4353,4695 5245,7861 5245,11170 0,1898 -633,3506 -1304,5208 -136,346 -274,696 -408,1052 -263,699 -499,1420 -750,2183 -847,2581 -1723,5250 -3620,6876 -1486,1275 -3307,1610 -5234,1965 -517,95 -1053,193 -1596,312 -670,146 -1382,388 -2071,622 -785,267 -1587,540 -2372,692l0 153c804,-153 1621,-431 2420,-702 717,-244 1393,-474 2055,-618 541,-118 1075,-217 1591,-312 1948,-358 3788,-696 5305,-1998 1928,-1654 2811,-4343 3665,-6943 250,-762 486,-1481 748,-2177 134,-356 271,-705 407,-1050 676,-1715 1314,-3336 1314,-5263 0,-4625 -2113,-7851 -5284,-11272 -3490,-3764 -7789,-6056 -12221,-6544l0 151z"/>
   <path class="fil0" d="M0 8516c9133,597 16380,8216 16380,17497 0,9281 -7247,16900 -16380,17497l0 151c9215,-598 16530,-8284 16530,-17648 0,-9364 -7315,-17050 -16530,-17647l0 150z"/>
   <path class="fil1" d="M0 26625c97,-183 151,-391 151,-612 0,-221 -54,-429 -151,-611l0 431c9,59 14,119 14,180 0,61 -5,121 -14,180l0 432z"/>
   <path class="fil1" d="M0 27516c65,-50 127,-104 185,-162 343,-343 555,-817 555,-1341 0,-523 -212,-997 -555,-1341 -58,-58 -120,-112 -185,-162l0 178c30,26 59,54 88,82 318,318 514,758 514,1243 0,486 -196,925 -514,1243 -29,29 -58,56 -88,82l0 178z"/>
   <path class="fil1" d="M0 28106c197,-109 377,-245 535,-402 432,-433 700,-1031 700,-1691 0,-660 -268,-1258 -700,-1690 -158,-158 -338,-294 -535,-403l0 159c160,96 306,210 437,341 408,408 660,971 660,1593 0,622 -252,1186 -660,1593 -131,131 -277,246 -437,341l0 159z"/>
   <path class="fil1" d="M0 28657c332,-145 632,-351 884,-604 522,-522 845,-1243 845,-2040 0,-797 -323,-1518 -845,-2040 -252,-253 -552,-459 -884,-604l0 151c294,137 560,324 787,550 497,498 805,1184 805,1943 0,759 -308,1446 -805,1943 -227,226 -493,414 -787,550l0 151z"/>
   <path class="fil1" d="M0 29190c468,-170 888,-441 1234,-787 612,-612 990,-1457 990,-2390 0,-933 -378,-1778 -990,-2390 -346,-345 -766,-616 -1234,-787l0 147c430,165 817,418 1137,738 586,586 949,1397 949,2292 0,895 -363,1706 -949,2293 -320,319 -707,573 -1137,737l0 147z"/>
   <path class="fil1" d="M0 30227c742,-203 1405,-596 1933,-1125 791,-790 1280,-1882 1280,-3089 0,-1206 -489,-2298 -1280,-3089 -528,-528 -1191,-922 -1933,-1125l0 143c704,199 1333,576 1836,1079 766,766 1239,1824 1239,2992 0,1169 -473,2226 -1239,2992 -503,503 -1132,880 -1836,1079l0 143z"/>
   <path class="fil1" d="M0 30738c879,-214 1664,-667 2283,-1286 880,-880 1424,-2096 1424,-3439 0,-1343 -544,-2559 -1424,-3439 -619,-619 -1404,-1072 -2283,-1286l0 142c841,211 1592,648 2186,1242 855,855 1384,2036 1384,3341 0,1305 -529,2487 -1384,3342 -594,593 -1345,1030 -2186,1241l0 142z"/>
   <path class="fil1" d="M0 32255c1289,-237 2442,-864 3332,-1754 1149,-1148 1859,-2735 1859,-4488 0,-1752 -710,-3339 -1859,-4488 -890,-890 -2043,-1516 -3332,-1754l0 141c1251,235 2370,846 3235,1711 1123,1123 1818,2676 1818,4390 0,1715 -695,3267 -1818,4391 -865,864 -1984,1475 -3235,1711l0 140z"/>
   <path class="fil1" d="M0 32757c1426,-242 2702,-926 3682,-1906 1238,-1238 2004,-2949 2004,-4838 0,-1889 -766,-3599 -2004,-4837 -980,-980 -2256,-1664 -3682,-1907l0 140c1388,241 2630,909 3584,1864 1213,1213 1964,2889 1964,4740 0,1851 -751,3527 -1964,4740 -954,955 -2196,1623 -3584,1864l0 140z"/>
   <path class="fil1" d="M0 33258c1563,-247 2962,-988 4031,-2058 1328,-1327 2149,-3161 2149,-5187 0,-2026 -821,-3860 -2149,-5187 -1069,-1070 -2468,-1811 -4031,-2058l0 139c1525,247 2889,972 3934,2016 1303,1303 2108,3102 2108,5090 0,1988 -805,3787 -2108,5090 -1045,1045 -2409,1770 -3934,2016l0 139z"/>
   <path class="fil1" d="M0 34259c1836,-256 3481,-1110 4731,-2359 1506,-1507 2438,-3588 2438,-5887 0,-2299 -932,-4380 -2438,-5887 -1250,-1249 -2895,-2103 -4731,-2358l0 139c1798,254 3409,1092 4633,2317 1482,1481 2398,3528 2398,5789 0,2261 -916,4308 -2398,5789 -1224,1225 -2835,2063 -4633,2317l0 140z"/>
   <path class="fil1" d="M0 34757c1973,-258 3741,-1168 5081,-2507 1595,-1596 2583,-3801 2583,-6237 0,-2435 -988,-4640 -2583,-6236 -1340,-1339 -3108,-2250 -5081,-2508l0 139c1935,257 3669,1152 4983,2466 1571,1571 2543,3742 2543,6139 0,2398 -972,4568 -2543,6139 -1314,1314 -3048,2209 -4983,2466l0 139z"/>
   <path class="fil1" d="M0 35256c2110,-261 4001,-1228 5430,-2657 1686,-1685 2728,-4014 2728,-6586 0,-2572 -1042,-4900 -2728,-6586 -1429,-1429 -3320,-2396 -5430,-2657l0 139c2072,260 3929,1212 5333,2615 1660,1661 2687,3955 2687,6489 0,2534 -1027,4828 -2687,6489 -1404,1404 -3261,2355 -5333,2615l0 139z"/>
   <path class="fil1" d="M0 35754c2247,-264 4261,-1286 5780,-2805 1775,-1775 2873,-4227 2873,-6936 0,-2708 -1098,-5161 -2873,-6936 -1519,-1518 -3533,-2541 -5780,-2805l0 139c2209,263 4189,1270 5683,2764 1750,1750 2832,4168 2832,6838 0,2671 -1082,5088 -2832,6838 -1494,1494 -3474,2501 -5683,2764l0 139z"/>
   <path class="fil1" d="M0 36252c2383,-266 4521,-1345 6130,-2953 1864,-1865 3017,-4441 3017,-7286 0,-2845 -1153,-5421 -3017,-7285 -1609,-1609 -3747,-2688 -6130,-2954l0 139c2345,265 4449,1329 6032,2912 1840,1840 2977,4381 2977,7188 0,2807 -1137,5349 -2977,7188 -1583,1584 -3687,2647 -6032,2912l0 139z"/>
   <path class="fil1" d="M0 36749c2520,-268 4781,-1403 6479,-3101 1954,-1954 3163,-4653 3163,-7635 0,-2982 -1209,-5681 -3163,-7635 -1698,-1698 -3959,-2833 -6479,-3101l0 139c2482,267 4709,1386 6382,3059 1929,1929 3122,4594 3122,7538 0,2944 -1193,5609 -3122,7538 -1673,1673 -3900,2792 -6382,3060l0 138z"/>
   <path class="fil1" d="M0 37744c2793,-272 5301,-1519 7179,-3396 2133,-2133 3452,-5080 3452,-8335 0,-3255 -1319,-6201 -3452,-8334 -1878,-1878 -4386,-3124 -7179,-3396l0 138c2755,271 5229,1503 7081,3355 2108,2108 3412,5020 3412,8237 0,3217 -1304,6129 -3412,8237 -1852,1853 -4326,3084 -7081,3355l0 139z"/>
   <path class="fil1" d="M0 38240c2930,-273 5561,-1576 7528,-3543 2223,-2222 3597,-5292 3597,-8684 0,-3391 -1374,-6462 -3597,-8684 -1967,-1967 -4598,-3270 -7528,-3543l0 138c2892,273 5489,1560 7431,3502 2197,2198 3557,5234 3557,8587 0,3354 -1360,6389 -3557,8587 -1942,1942 -4539,3229 -7431,3502l0 138z"/>
   <path class="fil1" d="M0 38737c3067,-275 5821,-1633 7878,-3690 2312,-2312 3742,-5506 3742,-9034 0,-3528 -1430,-6722 -3742,-9034 -2057,-2056 -4811,-3415 -7878,-3690l0 138c3029,275 5749,1618 7781,3650 2287,2287 3701,5446 3701,8936 0,3490 -1414,6650 -3701,8937 -2032,2031 -4752,3374 -7781,3649l0 138z"/>
   <path class="fil1" d="M0 39730c3340,-278 6342,-1748 8577,-3984 2491,-2490 4032,-5932 4032,-9733 0,-3801 -1541,-7242 -4032,-9733 -2235,-2236 -5237,-3706 -8577,-3984l0 139c3302,277 6269,1732 8480,3942 2466,2466 3991,5873 3991,9636 0,3763 -1525,7170 -3991,9636 -2211,2211 -5178,3665 -8480,3943l0 138z"/>
   <path class="fil1" d="M0 41218c3750,-281 7122,-1918 9626,-4423 2760,-2759 4467,-6571 4467,-10782 0,-4211 -1707,-8023 -4467,-10782 -2504,-2505 -5876,-4142 -9626,-4423l0 138c3712,281 7050,1903 9529,4382 2734,2735 4426,6512 4426,10685 0,4173 -1692,7951 -4426,10685 -2479,2480 -5817,4101 -9529,4382l0 138z"/>
   <path class="fil1" d="M0 42210c4023,-283 7642,-2032 10326,-4715 2938,-2939 4756,-6998 4756,-11482 0,-4484 -1818,-8543 -4756,-11482 -2684,-2683 -6303,-4431 -10326,-4714l0 138c3985,282 7570,2015 10228,4674 2914,2913 4716,6938 4716,11384 0,4446 -1802,8471 -4716,11384 -2658,2659 -6243,4392 -10228,4675l0 138z"/>
  </g>
 </g>
</svg>
