<?xml version="1.0" encoding="UTF-8"?>
<!DOCTYPE svg PUBLIC "-//W3C//DTD SVG 1.1//EN" "http://www.w3.org/Graphics/SVG/1.1/DTD/svg11.dtd">
<!-- Creator: CorelDRAW X7 -->
<svg xmlns="http://www.w3.org/2000/svg" xml:space="preserve" width="0.327717in" height="0.355551in" version="1.1" style="shape-rendering:geometricPrecision; text-rendering:geometricPrecision; image-rendering:optimizeQuality; fill-rule:evenodd; clip-rule:evenodd"
viewBox="0 0 3277 3556"
 xmlns:xlink="http://www.w3.org/1999/xlink">
 <defs>
  <style type="text/css">
   <![CDATA[
    .fil0 {fill:white}
   ]]>
  </style>
 </defs>
 <g id="Layer_x0020_1">
  <metadata id="CorelCorpID_0Corel-Layer"/>
  <path class="fil0" d="M2838 439c-283,-283 -660,-439 -1060,-439 -401,0 -777,156 -1061,439 -280,280 -435,652 -439,1048l-273 546c-12,24 -3,54 20,68l253 152 0 805c0,29 24,52 52,52l505 0 0 393c0,29 23,53 52,53 29,0 52,-24 52,-53l0 -445c0,-29 -23,-52 -52,-52l-504 0 0 -783c0,-18 -10,-35 -26,-45l-237 -142 257 -513c4,-7 6,-15 6,-24 0,-769 626,-1395 1395,-1395 769,0 1395,626 1395,1395 0,433 -196,834 -537,1100 -12,10 -20,25 -20,41l0 863c0,29 24,53 52,53 29,0 53,-24 53,-53l0 -838c354,-286 556,-709 556,-1166 0,-400 -156,-777 -439,-1060zm-1785 1474l1450 0 -503 -439 -188 164c-19,17 -49,18 -69,0l-187 -164 -503 439zm1536 -62l0 -891 -510 445 510 446zm-1112 -446l-511 -445 0 891 511 -446zm1026 -507l-1450 0 535 467 0 0 1 1 1 0 1 1 0 1 187 162 186 -163 1 -1 1 0 537 -468zm139 1119l-1728 0c-29,0 -52,-23 -52,-52l0 -1 0 -1117 0 -1c0,-29 23,-52 52,-52l1728 0 0 0 1 0 0 0 1 0 0 0 0 0 1 0 1 0 0 0c27,2 48,24 48,52l0 1119c0,29 -24,52 -52,52z"/>
 </g>
</svg>
