<?xml version="1.0" encoding="UTF-8"?>
<!DOCTYPE svg PUBLIC "-//W3C//DTD SVG 1.1//EN" "http://www.w3.org/Graphics/SVG/1.1/DTD/svg11.dtd">
<!-- Creator: CorelDRAW X7 -->
<svg xmlns="http://www.w3.org/2000/svg" xml:space="preserve" width="0.327717in" height="0.355551in" version="1.1" style="shape-rendering:geometricPrecision; text-rendering:geometricPrecision; image-rendering:optimizeQuality; fill-rule:evenodd; clip-rule:evenodd"
viewBox="0 0 3277 3556"
 xmlns:xlink="http://www.w3.org/1999/xlink">
 <defs>
  <style type="text/css">
   <![CDATA[
    .fil0 {fill:white}
   ]]>
  </style>
 </defs>
 <g id="Layer_x0020_1">
  <metadata id="CorelCorpID_0Corel-Layer"/>
  <path class="fil0" d="M2838 439c-283,-283 -660,-439 -1060,-439 -401,0 -777,156 -1061,439 -280,280 -435,652 -439,1048l-273 546c-12,24 -3,54 20,68l253 152 0 805c0,29 24,52 52,52l505 0 0 393c0,29 23,53 52,53 29,0 52,-24 52,-53l0 -445c0,-29 -23,-52 -52,-52l-504 0 0 -783c0,-18 -10,-35 -26,-45l-237 -142 257 -513c4,-7 6,-15 6,-24 0,-769 626,-1395 1395,-1395 769,0 1395,626 1395,1395 0,433 -196,834 -537,1100 -12,10 -20,25 -20,41l0 863c0,29 24,53 52,53 29,0 53,-24 53,-53l0 -838c354,-286 556,-709 556,-1166 0,-400 -156,-777 -439,-1060zm-724 1213c85,0 162,35 218,91 56,55 91,133 91,218 0,170 -139,308 -309,308 -196,0 -333,-171 -303,-364l-526 -202c-56,91 -154,147 -261,147 -170,0 -308,-139 -308,-309 0,-85 34,-162 90,-218 56,-56 133,-90 218,-90 100,0 193,49 251,130l541 -250c-50,-192 96,-383 298,-383 170,0 309,138 309,308 0,170 -139,309 -309,309 -100,0 -193,-49 -251,-130l-541 249c13,49 13,82 5,131l526 202c56,-91 154,-147 261,-147zm195 309c0,-54 -22,-103 -57,-138 -36,-35 -84,-57 -138,-57 -53,0 -102,22 -137,57 -36,35 -57,84 -57,138 0,53 21,102 57,137 35,35 84,57 137,57 54,0 102,-22 138,-57 35,-35 57,-84 57,-137zm-1090 -420c0,-53 -22,-102 -57,-137 -35,-35 -84,-57 -138,-57 -53,0 -102,22 -137,57 -36,35 -57,84 -57,137 0,54 21,103 57,138 35,35 84,57 137,57 54,0 103,-22 138,-57 35,-35 57,-84 57,-138zm1090 -503c0,-53 -22,-102 -57,-137 -36,-36 -84,-57 -138,-57 -53,0 -102,21 -137,57 -36,35 -57,84 -57,137 0,54 21,103 57,138 35,35 84,57 137,57 54,0 102,-22 138,-57 35,-35 57,-84 57,-138z"/>
 </g>
</svg>
