<?xml version="1.0" encoding="UTF-8"?>
<!DOCTYPE svg PUBLIC "-//W3C//DTD SVG 1.1//EN" "http://www.w3.org/Graphics/SVG/1.1/DTD/svg11.dtd">
<!-- Creator: CorelDRAW X7 -->
<svg xmlns="http://www.w3.org/2000/svg" xml:space="preserve" width="0.327717in" height="0.355551in" version="1.1" style="shape-rendering:geometricPrecision; text-rendering:geometricPrecision; image-rendering:optimizeQuality; fill-rule:evenodd; clip-rule:evenodd"
viewBox="0 0 3277 3556"
 xmlns:xlink="http://www.w3.org/1999/xlink">
 <defs>
  <style type="text/css">
   <![CDATA[
    .fil0 {fill:white}
   ]]>
  </style>
 </defs>
 <g id="Layer_x0020_1">
  <metadata id="CorelCorpID_0Corel-Layer"/>
  <path class="fil0" d="M2838 439c-283,-283 -660,-439 -1060,-439 -401,0 -777,156 -1061,439 -280,280 -435,652 -439,1048l-273 546c-12,24 -3,54 20,68l253 152 0 805c0,29 24,52 52,52l505 0 0 393c0,29 23,53 52,53 29,0 52,-24 52,-53l0 -445c0,-29 -23,-52 -52,-52l-504 0 0 -783c0,-18 -10,-35 -26,-45l-237 -142 257 -513c4,-7 6,-15 6,-24 0,-769 626,-1395 1395,-1395 769,0 1395,626 1395,1395 0,433 -196,834 -537,1100 -12,10 -20,25 -20,41l0 863c0,29 24,53 52,53 29,0 53,-24 53,-53l0 -838c354,-286 556,-709 556,-1166 0,-400 -156,-777 -439,-1060zm-428 187l-79 79c-18,19 -19,48 -3,69 18,25 55,27 77,5l79 -79c20,-20 20,-53 0,-74 -21,-20 -54,-20 -74,0zm366 706c0,-28 -23,-52 -52,-52l-111 0c-29,0 -52,24 -52,52 0,29 23,53 52,53l111 0c29,0 52,-24 52,-53zm-371 554c-20,-20 -53,-20 -74,0 -20,20 -20,53 0,74l79 78c22,22 59,20 77,-4 16,-21 15,-51 -3,-69l-79 -79zm-1255 0l-78 79c-19,19 -21,50 -3,70 19,23 55,25 77,3l78 -78c21,-21 21,-54 0,-74 -20,-20 -53,-20 -74,0zm-207 -606l-112 0c-28,0 -52,24 -52,52 0,29 24,53 52,53l112 0c29,0 52,-24 52,-53 0,-28 -23,-52 -52,-52zm207 -501c22,21 57,20 77,-3 17,-20 16,-52 -3,-71l-78 -79c-21,-20 -54,-20 -74,0 -21,21 -21,54 0,74l78 79zm680 -282l0 -111c0,-29 -23,-52 -52,-52 -29,0 -52,23 -52,52l0 111c0,29 23,53 52,53 29,0 52,-24 52,-53zm230 1785l-564 0 0 -62 59 0 445 0 60 0 0 62zm-898 -950c0,-339 276,-615 616,-615 339,0 616,276 616,615 0,261 -165,494 -411,581 -21,8 -35,27 -35,49l0 153 -341 0 0 -153c0,-22 -14,-41 -35,-49 -245,-87 -410,-320 -410,-581zm891 783l0 -117c267,-110 445,-373 445,-666 0,-397 -323,-720 -720,-720 -397,0 -720,323 -720,720 0,293 177,556 445,666l0 117 -59 0 -2 0c-28,1 -50,24 -50,52l0 390c0,152 123,275 274,275l223 0c152,0 275,-123 275,-275l0 -390c0,-28 -23,-51 -51,-52l-1 0 -59 0zm-164 613l-223 0c-94,0 -170,-77 -170,-171l0 -4c1,0 2,1 3,1l561 0 0 3c0,94 -77,171 -171,171zm171 -279l-561 0c-1,0 -2,0 -3,0l0 -62 564 0 0 62z"/>
 </g>
</svg>
