<?xml version="1.0" encoding="UTF-8"?>
<!DOCTYPE svg PUBLIC "-//W3C//DTD SVG 1.1//EN" "http://www.w3.org/Graphics/SVG/1.1/DTD/svg11.dtd">
<!-- Creator: CorelDRAW X7 -->
<svg xmlns="http://www.w3.org/2000/svg" xml:space="preserve" width="0.327717in" height="0.355551in" version="1.1" style="shape-rendering:geometricPrecision; text-rendering:geometricPrecision; image-rendering:optimizeQuality; fill-rule:evenodd; clip-rule:evenodd"
viewBox="0 0 3277 3556"
 xmlns:xlink="http://www.w3.org/1999/xlink">
 <defs>
  <style type="text/css">
   <![CDATA[
    .fil0 {fill:white}
   ]]>
  </style>
 </defs>
 <g id="Layer_x0020_1">
  <metadata id="CorelCorpID_0Corel-Layer"/>
  <path class="fil0" d="M2838 439c-283,-283 -660,-439 -1060,-439 -401,0 -777,156 -1061,439 -280,280 -435,652 -439,1048l-273 546c-12,24 -3,54 20,68l253 152 0 805c0,29 24,52 52,52l505 0 0 393c0,29 23,53 52,53 29,0 52,-24 52,-53l0 -445c0,-29 -23,-52 -52,-52l-504 0 0 -783c0,-18 -10,-35 -26,-45l-237 -142 257 -513c4,-7 6,-15 6,-24 0,-769 626,-1395 1395,-1395 769,0 1395,626 1395,1395 0,433 -196,834 -537,1100 -12,10 -20,25 -20,41l0 863c0,29 24,53 52,53 29,0 53,-24 53,-53l0 -838c354,-286 556,-709 556,-1166 0,-400 -156,-777 -439,-1060zm-1060 71c546,0 989,443 989,989 0,547 -443,990 -989,990 -547,0 -990,-443 -990,-990 0,-546 443,-989 990,-989zm52 1510l0 -468 468 0c29,0 52,-24 52,-53 0,-28 -23,-52 -52,-52l-468 0 0 -468c0,-29 -23,-52 -52,-52 -29,0 -52,23 -52,52l0 468 -469 0c-28,0 -52,24 -52,52 0,29 24,53 52,53l469 0 0 468c0,29 23,52 52,52 29,0 52,-23 52,-52zm574 -1147c-160,-160 -382,-259 -626,-259 -245,0 -466,99 -626,259l-1 0c-160,160 -258,382 -258,626 0,245 98,466 258,626l1 1c160,160 381,259 626,259 244,0 466,-99 626,-259l0 -1c160,-160 259,-381 259,-626 0,-244 -99,-466 -259,-626l0 0z"/>
 </g>
</svg>
