<?xml version="1.0" encoding="UTF-8"?>
<!DOCTYPE svg PUBLIC "-//W3C//DTD SVG 1.1//EN" "http://www.w3.org/Graphics/SVG/1.1/DTD/svg11.dtd">
<!-- Creator: CorelDRAW X7 -->
<svg xmlns="http://www.w3.org/2000/svg" xml:space="preserve" width="2.93831in" height="1.45453in" version="1.1" style="shape-rendering:geometricPrecision; text-rendering:geometricPrecision; image-rendering:optimizeQuality; fill-rule:evenodd; clip-rule:evenodd"
viewBox="0 0 29383 14545"
 xmlns:xlink="http://www.w3.org/1999/xlink">
 <defs>
  <style type="text/css">
   <![CDATA[
    .fil0 {fill:#E6AD62}
   ]]>
  </style>
 </defs>
 <g id="Layer_x0020_1">
  <metadata id="CorelCorpID_0Corel-Layer"/>
  <path class="fil0" d="M571 14545c-44,-802 -129,-1589 -209,-2330 -214,-1977 -399,-3684 337,-4420 2538,-2539 5766,-1861 8892,-1186 -3051,-592 -6181,-1112 -8685,1392 -792,792 -632,2500 -447,4478 61,658 126,1355 161,2066l172 0c-34,-717 -100,-1419 -162,-2082 -181,-1935 -336,-3605 398,-4340 2516,-2516 5716,-1893 8810,-1291l73 14c-3042,-523 -6174,-1017 -8676,1484 -789,790 -659,2459 -509,4393 45,582 92,1195 117,1822l173 0c-25,-631 -73,-1249 -119,-1835 -146,-1891 -273,-3525 460,-4258 2478,-2478 5626,-1936 8670,-1411l197 34c-3031,-452 -6163,-914 -8661,1584 -786,787 -687,2419 -572,4309 31,505 63,1035 79,1577l173 0c-17,-546 -49,-1079 -80,-1588 -113,-1848 -210,-3444 522,-4176 2443,-2442 5540,-1979 8535,-1532l301 45 -83 -11c-2989,-374 -6079,-762 -8546,1705 -785,785 -717,2378 -638,4224 19,436 38,882 47,1333l172 0c-9,-460 -28,-910 -47,-1341 -76,-1804 -143,-3363 588,-4094 2407,-2407 5455,-2025 8402,-1655 2695,338 5481,687 7738,-1114 3545,-2829 7444,-4355 11229,-4438l0 -172c-3139,68 -6353,1117 -9381,3068 3023,-2053 6235,-3193 9381,-3338l0 -173c-3104,142 -6270,1241 -9259,3221 2984,-2079 6148,-3266 9259,-3483l0 -173c-3067,212 -6185,1356 -9132,3360 2943,-2100 6059,-3330 9132,-3616l0 -174c-3037,280 -6114,1471 -9026,3504 2908,-2126 5984,-3400 9026,-3753l0 -174c-3868,444 -7787,2361 -11354,5611 -2346,2137 -5258,1508 -8341,842 -3191,-689 -6490,-1401 -9111,1220 -794,794 -606,2540 -387,4561 79,734 164,1515 208,2311l173 0zm28812 -2833c-2491,-1163 -5186,-1744 -7882,-1744 -4366,0 -8732,1526 -12231,4577l242 0c3445,-2946 7717,-4419 11989,-4419 2697,0 5393,587 7882,1761l0 -175zm0 1262c-2471,-1247 -5176,-1871 -7882,-1871 -3669,0 -7339,1147 -10424,3442l267 0c3021,-2189 6589,-3284 10157,-3284 2707,0 5414,630 7882,1890l0 -177zm-666 1571c-2258,-1160 -4737,-1740 -7216,-1740 -2479,0 -4957,580 -7215,1740l353 0c2159,-1055 4511,-1582 6862,-1582 2352,0 4704,527 6863,1582l353 0zm-3036 0c-1362,-404 -2771,-606 -4180,-606 -1409,0 -2818,202 -4180,606l597 0c1174,-298 2379,-447 3583,-447 1205,0 2409,149 3584,447l596 0zm-3138 0c-347,-25 -694,-38 -1042,-38 -347,0 -694,13 -1040,38l2082 0zm-15440 0c57,-58 114,-116 172,-174 5967,-5967 14779,-7394 22108,-4284l0 -187c-7378,-3099 -16230,-1650 -22230,4349 -98,98 -194,197 -290,296l240 0zm-1194 0c217,-295 450,-574 709,-832 3003,-3003 6844,-4017 10559,-4996 331,-88 661,-175 991,-263 3787,-1016 7696,-806 11215,485l0 -185c-3348,-1215 -7042,-1462 -10652,-619 3153,-888 6442,-923 9550,-95 372,99 740,209 1102,332l0 -182c-348,-117 -701,-222 -1057,-317 -3326,-886 -6856,-794 -10209,265 -940,297 -1912,552 -2852,799 -3182,836 -6472,1700 -9098,4326 -377,377 -688,810 -963,1282l201 0c255,-427 542,-819 884,-1160 2048,-2049 4517,-3014 7022,-3739 -2449,817 -4812,1942 -6815,3945 -295,295 -558,615 -800,954l213 0zm-1355 0c272,-708 599,-1340 1077,-1818 2306,-2306 5185,-2905 7969,-3484 1520,-316 3091,-643 4569,-1242 3481,-1411 7166,-1713 10654,-874 188,46 375,94 560,145l0 -178c-172,-48 -345,-92 -519,-134 -3244,-780 -6654,-584 -9917,562 3480,-1372 7115,-1600 10436,-783l0 -178c-3307,-805 -6920,-585 -10385,757 3394,-1465 6958,-1848 10361,-1106l24 5 0 -177c-3367,-731 -6889,-373 -10251,1033 3396,-1554 6966,-1983 10251,-1370l0 -176c-3626,-669 -7593,-83 -11297,1868 -1797,947 -3816,1162 -5769,1369 -2717,290 -5528,588 -7794,2855 -673,673 -942,1745 -1158,2926l175 0c215,-1172 468,-2168 1105,-2804 2223,-2224 5002,-2519 7690,-2805l293 -31c-2712,380 -5514,779 -7776,3042 -625,625 -931,1559 -1176,2598l177 0c237,-997 534,-1890 1121,-2476 2230,-2230 5014,-2620 7707,-2998l110 -15c-2662,466 -5393,1002 -7611,3220 -571,572 -903,1374 -1171,2269l180 0c259,-853 578,-1612 1113,-2147 2211,-2210 4959,-2725 7630,-3192 -2608,553 -5256,1233 -7423,3399 -514,514 -856,1188 -1139,1940l184 0zm-1857 0l7 -98c116,-1586 217,-2956 954,-3693 2261,-2260 5100,-2291 7846,-2320 2278,-25 4634,-50 6659,-1339 3617,-2303 7474,-3289 11220,-2880l0 -174c-3297,-355 -6677,357 -9905,2085 3426,-1965 6828,-2644 9905,-2388l0 -175c-3025,-249 -6358,396 -9721,2261 3141,-1847 6495,-2728 9721,-2556l0 -173c-3223,-169 -6571,699 -9709,2522 3132,-1935 6476,-2901 9709,-2812l0 -173c-3798,-103 -7745,1233 -11327,3872 -2121,1561 -4712,1369 -7217,1182 -2897,-215 -5892,-437 -8289,1960 -782,782 -779,2298 -775,4053 0,278 1,561 -1,846l172 0c2,-285 2,-568 1,-846 -3,-1717 -7,-3200 725,-3931 2341,-2341 5296,-2122 8154,-1910 176,14 353,27 529,39l-306 -14c-2854,-134 -5805,-274 -8170,2091 -782,782 -812,2259 -848,3969 -4,198 -8,399 -13,602l172 0c5,-201 10,-401 14,-599 34,-1673 64,-3117 797,-3850 2311,-2311 5224,-2174 8040,-2041 189,9 378,18 567,26l-338 -6c-2815,-53 -5726,-108 -8062,2228 -782,782 -849,2221 -926,3886 -5,118 -11,237 -16,356l172 0c6,-117 11,-233 17,-348 75,-1630 140,-3037 874,-3772 2285,-2284 5158,-2230 7938,-2177 190,3 380,7 571,10l-336 3c-2781,30 -5655,61 -7966,2371 -782,783 -885,2182 -1004,3802l-8 111 173 0z"/>
 </g>
</svg>
