<?xml version="1.0" encoding="UTF-8"?>
<!DOCTYPE svg PUBLIC "-//W3C//DTD SVG 1.1//EN" "http://www.w3.org/Graphics/SVG/1.1/DTD/svg11.dtd">
<!-- Creator: CorelDRAW X7 -->
<svg xmlns="http://www.w3.org/2000/svg" xml:space="preserve" width="2.77772in" height="0.689764in" version="1.1" style="shape-rendering:geometricPrecision; text-rendering:geometricPrecision; image-rendering:optimizeQuality; fill-rule:evenodd; clip-rule:evenodd" viewBox="0 0 27777 6898" xmlns:xlink="http://www.w3.org/1999/xlink">
 <defs>
  <style type="text/css">
   <![CDATA[
    .fil0 {fill:#E6E6E6}
    .fil1 {fill:#E6E6E6;fill-rule:nonzero}
   ]]>
  </style>
 </defs>
 <g id="Layer_x0020_1">
  <metadata id="CorelCorpID_0Corel-Layer"/>
  <g id="_2723969753152">
   <path class="fil0" d="M27608 6898c-1179,-2253 -2204,-4604 -2556,-6898l152 0c355,2289 1390,4642 2573,6898l-169 0z"/>
   <path class="fil0" d="M27553 6898c-1158,-2240 -2203,-4596 -2585,-6898l152 0c386,2298 1440,4656 2602,6898l-169 0z"/>
   <path class="fil0" d="M27487 6898c-1130,-2225 -2192,-4586 -2603,-6898l153 0c415,2308 1485,4671 2618,6898l-168 0z"/>
   <path class="fil0" d="M27405 6898c-1091,-2207 -2166,-4574 -2604,-6898l153 0c443,2321 1526,4690 2619,6898l-168 0z"/>
   <path class="fil0" d="M27304 6898c-1040,-2185 -2122,-4559 -2585,-6898l153 0c467,2336 1557,4713 2599,6898l-167 0z"/>
   <path class="fil0" d="M27025 6898c-102,-243 -206,-488 -311,-736 -820,-1933 -1720,-4053 -2165,-6162l154 0c445,2085 1336,4186 2149,6103 114,268 226,533 336,795l-163 0z"/>
   <path class="fil0" d="M26834 6898c-171,-452 -354,-916 -541,-1390 -683,-1730 -1428,-3619 -1833,-5508l154 0c404,1867 1142,3738 1819,5453 194,493 385,976 562,1445l-161 0z"/>
   <path class="fil0" d="M26600 6898c-214,-657 -464,-1348 -722,-2062 -551,-1522 -1149,-3174 -1507,-4836l154 0c357,1642 949,3278 1495,4785 264,731 520,1439 738,2113l-158 0z"/>
   <path class="fil0" d="M26302 6898c-216,-849 -517,-1767 -831,-2727 -431,-1316 -896,-2736 -1200,-4171l154 0c303,1418 762,2822 1189,4125 319,975 625,1908 843,2773l-155 0z"/>
   <path class="fil0" d="M24851 6898c167,-1328 -172,-2977 -543,-4781 -144,-698 -289,-1405 -411,-2117l152 0c121,702 265,1399 406,2087 372,1808 712,3464 549,4811l-153 0z"/>
   <path class="fil0" d="M24073 6898c516,-1436 213,-3359 -126,-5501 -73,-462 -146,-928 -213,-1397l152 0c66,461 138,920 210,1374 337,2138 641,4061 138,5524l-161 0z"/>
   <path class="fil0" d="M23059 6898c1051,-1507 816,-3727 548,-6255 -22,-213 -45,-428 -67,-643l151 0c21,210 44,419 66,627 266,2513 500,4725 -516,6271l-182 0z"/>
   <path class="fil0" d="M21716 6898c101,-79 198,-164 290,-256 1520,-1524 1434,-3893 1298,-6642l151 0c131,2671 221,5180 -1343,6748 -52,52 -105,102 -160,150l-236 0z"/>
   <path class="fil0" d="M22800 0c-228,2031 -668,3873 -1939,5230 -783,836 -1828,1328 -2974,1668l-571 0c1331,-337 2557,-834 3435,-1771 1238,-1321 1671,-3129 1898,-5127l151 0z"/>
   <path class="fil0" d="M22343 0c-388,1701 -988,3240 -2108,4471 -1091,1208 -2603,1894 -4203,2427l-489 0c1742,-548 3413,-1236 4580,-2528 1091,-1199 1682,-2703 2066,-4370l154 0z"/>
   <path class="fil0" d="M21001 0c-1567,2860 -3907,5263 -6769,6898l-308 0c2920,-1609 5309,-4017 6905,-6898l172 0z"/>
   <path class="fil1" d="M7939 0c-488,141 -994,241 -1515,297 -1179,127 -2328,14 -3400,-297l552 0c905,204 1859,265 2833,160 331,-35 656,-89 973,-160l557 0z"/>
   <path class="fil1" d="M9358 0c-888,406 -1857,679 -2882,789 -1727,185 -3394,-114 -4866,-789l343 0c1379,576 2918,822 4509,652 900,-97 1756,-321 2552,-652l344 0z"/>
   <path class="fil1" d="M10430 0c-1160,678 -2478,1128 -3901,1280 -2166,233 -4243,-259 -5990,-1280l279 0c1678,926 3646,1363 5696,1143 1318,-141 2545,-541 3637,-1143l279 0z"/>
   <path class="fil1" d="M11349 0c-1370,951 -2992,1582 -4767,1772 -2397,257 -4689,-329 -6582,-1521l0 -163c1881,1207 4172,1804 6567,1547 1680,-180 3221,-760 4537,-1635l245 0z"/>
   <path class="fil1" d="M12179 0c-1544,1223 -3441,2038 -5544,2264 -2402,258 -4704,-293 -6635,-1433l0 -161c1921,1154 4220,1714 6620,1457 2014,-216 3836,-980 5335,-2127l224 0z"/>
   <path class="fil1" d="M13678 0c-1821,1764 -4222,2956 -6938,3247 -2416,260 -4740,-231 -6740,-1284l0 -156c1991,1064 4311,1562 6725,1303 2634,-282 4967,-1421 6754,-3110l199 0z"/>
   <path class="fil1" d="M14374 0c-1935,2032 -4572,3416 -7581,3739 -2426,260 -4762,-204 -6793,-1220l0 -154c2023,1025 4355,1497 6778,1237 2928,-314 5501,-1644 7405,-3602l191 0z"/>
   <path class="fil1" d="M15045 0c-2036,2300 -4904,3877 -8199,4231 -2436,261 -4785,-181 -6846,-1162l0 -153c2052,991 4398,1439 6831,1178 3216,-345 6020,-1868 8030,-4094l184 0z"/>
   <path class="fil1" d="M16331 0c-43,56 -88,112 -132,167 -2211,2743 -5468,4642 -9248,5047 -2459,264 -4835,-137 -6951,-1058l0 -150c2108,928 4481,1335 6936,1071 3742,-401 6967,-2281 9156,-4996 21,-27 43,-54 64,-81l175 0z"/>
   <path class="fil1" d="M18161 0c-252,378 -522,745 -807,1098 -2449,3038 -6058,5142 -10245,5591 -2497,268 -4917,-83 -7109,-929l0 -148c2185,852 4601,1208 7095,940 4149,-445 7724,-2530 10152,-5540 263,-327 513,-664 748,-1012l166 0z"/>
   <path class="fil1" d="M19336 0c-367,599 -772,1173 -1212,1719 -1893,2348 -4437,4172 -7395,5179l-445 0c3104,-966 5770,-2832 7733,-5265 418,-520 805,-1065 1157,-1633l162 0zm-19101 6898c-79,-27 -157,-55 -235,-83l0 -146c224,81 450,157 678,229l-443 0z"/>
  </g>
 </g>
</svg>