<?xml version="1.0" encoding="UTF-8"?>
<!-- Generator: Adobe Illustrator 23.0.5, SVG Export Plug-In . SVG Version: 6.00 Build 0)  -->
<svg version="1.1" id="Layer_1" xmlns="http://www.w3.org/2000/svg" xmlns:xlink="http://www.w3.org/1999/xlink" x="0px" y="0px" viewBox="0 0 218.6 107.1" style="enable-background:new 0 0 218.6 107.1;" xml:space="preserve">
<style type="text/css">
	.st0{fill-rule:evenodd;clip-rule:evenodd;fill:#E6E6E6;}
	.st1{fill:#E6E6E6;}
</style>
<g id="Layer_x0020_1">
	<g id="_2724211497200">
		<g>
			<path class="st0" d="M186,107.1c4.9-6.7,10.8-12.8,16.2-18.2c8.6-8.8,16.1-16.4,15.4-22.9c-2.4-22.5-20.5-31.9-38.1-41     c-12.7-6.5-25.7-13.2-32.6-24.9h1.2c6.7,11,19,17.3,31.9,23.9c17.8,9.2,36.3,18.7,38.7,41.8c0.7,7-6.9,14.8-15.7,23.8     c-5.1,5.3-10.8,11-15.6,17.5C187.4,107.1,186,107.1,186,107.1z"/>
			<path class="st0" d="M184.4,107.1c4.7-6.7,10.4-12.7,15.5-18.1c8.3-8.7,15.5-16.3,14.8-22.8c-2.3-22.2-20-31.8-37-41     c-12.3-6.7-25-13.5-31.7-25.2h1.2c6.5,11,18.5,17.5,31,24.2c17.3,9.4,35.2,19.1,37.6,41.9c0.7,7-6.6,14.7-15.1,23.6     c-4.9,5.2-10.4,11-15,17.3L184.4,107.1L184.4,107.1z"/>
			<path class="st0" d="M182.8,107.1c4.5-6.6,10-12.6,14.9-17.9c8-8.7,14.8-16.1,14.2-22.6c-2.3-21.9-19.4-31.6-35.9-41     c-12-6.8-24.2-13.8-30.8-25.5h1.2c6.3,11,18,17.6,30.1,24.5c16.8,9.6,34.1,19.4,36.4,41.9c0.7,7-6.3,14.6-14.5,23.5     c-4.7,5.2-10,10.9-14.3,17.2L182.8,107.1L182.8,107.1z"/>
			<path class="st0" d="M181.2,107.1c4.3-6.6,9.5-12.5,14.2-17.8c7.6-8.6,14.2-16,13.6-22.5c-2.3-21.5-18.8-31.5-34.8-41.1     c-11.6-7-23.5-14.1-29.9-25.7h1.2c6.2,10.9,17.4,17.7,29.2,24.8c16.2,9.7,33,19.8,35.3,41.9c0.7,6.9-6,14.5-13.8,23.3     c-4.5,5.1-9.6,10.8-13.7,17L181.2,107.1L181.2,107.1z"/>
			<path class="st0" d="M179.7,107.1c4-6.5,9-12.3,13.5-17.6c7.3-8.5,13.6-15.9,12.9-22.3C204,45.9,188,35.8,172.5,26     c-11.2-7.1-22.7-14.4-28.9-26h1.2c6,10.9,16.9,17.8,28.3,25c15.7,9.9,31.9,20.2,34.2,42c0.7,6.9-5.7,14.4-13.2,23.1     c-4.5,5.2-9.3,10.8-13.1,16.9L179.7,107.1L179.7,107.1z"/>
			<path class="st0" d="M176.7,107.1c3.5-6.2,8-11.9,12.2-17.2c6.6-8.4,12.3-15.6,11.6-22.1c-2.2-20.7-17.1-31.2-31.5-41.4     c-10.4-7.4-21.1-15-27-26.3h1.2c5.9,10.9,16.3,18.3,26.4,25.4c14.6,10.4,29.8,21.1,32,42.2c0.7,6.9-5.1,14.3-11.9,22.9     c-4.1,5.1-8.4,10.6-11.8,16.5H176.7z"/>
			<path class="st0" d="M175.2,107.1c3.3-6.1,7.5-11.8,11.5-17c6.3-8.3,11.7-15.5,11-22c-2.1-20.4-16.5-31.2-30.5-41.6     c-10-7.5-20.3-15.2-26-26.4h1.2c5.7,10.8,15.7,18.3,25.5,25.6C182,36.2,196.6,47.1,198.7,68c0.7,6.9-4.8,14.2-11.2,22.7     c-3.8,5.1-7.9,10.5-11.1,16.4H175.2z"/>
			<path class="st0" d="M173.9,107.1c3-6,7-11.6,10.7-16.8c5.9-8.3,11-15.4,10.3-21.9c-2.1-20.2-16-31.2-29.4-41.9     c-9.6-7.6-19.4-15.4-25-26.5h1.2c5.6,10.6,15.1,18.2,24.5,25.6c13.6,10.8,27.7,22,29.9,42.6c0.7,6.9-4.5,14.2-10.5,22.6     c-3.6,5-7.4,10.4-10.4,16.2L173.9,107.1L173.9,107.1z"/>
			<path class="st0" d="M172.5,107.1c2.8-6,6.5-11.4,9.9-16.6c5.5-8.2,10.3-15.3,9.6-21.8c-2.1-20-15.5-31.3-28.5-42.2     c-9.1-7.7-18.5-15.6-24-26.5h1.2c5.5,10.4,14.6,18.1,23.4,25.6c13.1,11.1,26.7,22.6,28.8,43c0.7,6.9-4.2,14.1-9.8,22.5     c-3.3,4.9-6.9,10.2-9.6,15.9L172.5,107.1L172.5,107.1z"/>
			<path class="st0" d="M168.6,107.1c2-5.6,4.9-10.8,7.5-15.7c4.4-8.1,8.2-15.1,7.5-21.8c-2.1-19.6-14.2-32-25.9-44     c-7.6-7.7-15.4-15.7-20.5-25.6h1.2c5.1,9.6,12.7,17.3,20.1,24.9c11.8,12.1,24.1,24.6,26.2,44.6c0.7,7-3.3,14.5-7.6,22.4     c-2.5,4.7-5.3,9.7-7.3,15.1L168.6,107.1L168.6,107.1z"/>
			<path class="st0" d="M167.3,107.1c1.8-5.5,4.3-10.5,6.6-15.3c3.8-7.8,7.5-15.1,6.8-21.8c-2.1-19.7-13.8-32.6-25.2-45     c-7-7.6-14.2-15.5-19.2-24.9h1.2c5,9.1,12,16.8,18.8,24.2c11.5,12.6,23.4,25.6,25.5,45.6c0.7,7-3,14.5-6.9,22.4     c-2.3,4.6-4.7,9.5-6.5,14.8C168.4,107.1,167.3,107.1,167.3,107.1z"/>
			<path class="st0" d="M166.1,107.1c1.5-5.3,3.7-10.2,5.8-14.8c3.4-7.8,6.7-15.2,6-22c-2.1-19.9-13.6-33.4-24.7-46.4     c-6.3-7.4-12.9-15-17.7-23.9h1.2c4.8,8.5,11.1,15.9,17.3,23.1c11.2,13.2,22.9,26.8,25,47c0.7,7.1-2.6,14.6-6.1,22.6     c-2,4.6-4.1,9.4-5.6,14.3h-1.2V107.1z"/>
			<path class="st0" d="M165,107.1c1.3-4.9,3.1-9.6,4.9-14.1c3.1-7.9,5.9-15.3,5.2-22.3c-2.1-20.3-13.5-34.6-24.6-48.4     c-5.6-7-11.3-14.2-15.9-22.2h1.2c4.5,7.7,10.1,14.7,15.5,21.5c11.1,13.9,22.7,28.3,24.8,49c0.8,7.3-2.2,14.8-5.3,22.9     c-1.7,4.4-3.5,9-4.8,13.7L165,107.1L165,107.1z"/>
			<path class="st0" d="M133.9,0c3.2,4.8,6.6,9.5,9.8,14.1c12,16.6,24.3,33.8,26.7,57c0.8,7.9-1.3,15.9-3.6,24.3     c-1,3.8-2.1,7.7-2.9,11.7h-1.1c0.8-4.1,1.9-8.1,3-12c2.3-8.3,4.4-16.2,3.6-23.9c-2.4-22.9-14.7-39.9-26.5-56.4     c-3.4-4.8-7-9.7-10.3-14.8L133.9,0L133.9,0z"/>
			<path class="st0" d="M132.8,0c1.2,1.6,2.3,3.2,3.5,4.9c14,19.5,28.5,39.7,31.3,66.5c0.9,8.7-0.9,17.3-2.9,26.4     c-0.6,3-1.3,6.1-1.9,9.3h-1.1c0.6-3.2,1.2-6.4,1.9-9.5c1.9-9,3.7-17.6,2.9-26.1c-2.8-26.5-17.2-46.6-31.1-66     c-1.2-1.7-2.5-3.5-3.7-5.2c-0.1-0.1-0.2-0.2-0.2-0.3C131.5,0,132.8,0,132.8,0z"/>
			<path class="st0" d="M130.4,0C147.5,19.3,159,44.1,162,72c1.3,12,0.8,23.7-1.1,35h-1.1c1.9-11.3,2.3-23,1.1-34.9     c-2.9-28-14.6-52.9-32-72.1H130.4z"/>
			<path class="st1" d="M37.5,76.2c2.5-0.3,4.9,0.5,6.7,2s3.1,3.7,3.4,6.3c0.3,2.6-0.5,5-2,6.9s-3.6,3.2-6.2,3.4     c-2.5,0.3-4.9-0.5-6.7-2s-3.1-3.7-3.4-6.3c-0.3-2.6,0.5-5,2-6.9C32.8,77.8,35,76.5,37.5,76.2z M43.6,79c-1.6-1.4-3.8-2.1-6-1.8     c-2.3,0.3-4.2,1.4-5.5,3.1s-2,3.9-1.8,6.2c0.2,2.3,1.4,4.3,3,5.7c1.6,1.3,3.8,2.1,6,1.8c2.3-0.3,4.2-1.4,5.5-3.1s2-3.9,1.8-6.2     C46.4,82.4,45.3,80.4,43.6,79z"/>
			<path class="st1" d="M37.1,72c3.7-0.4,7.1,0.7,9.8,2.9s4.5,5.4,4.9,9.2c0.4,3.7-0.7,7.3-2.9,10s-5.3,4.6-8.9,5     c-3.7,0.4-7.1-0.7-9.8-2.9c-2.6-2.2-4.5-5.4-4.9-9.2c-0.4-3.7,0.7-7.3,2.9-10S33.4,72.4,37.1,72z M46.2,75.7     c-2.5-2-5.7-3.1-9.1-2.7s-6.3,2.1-8.3,4.6s-3,5.8-2.7,9.3c0.4,3.5,2.1,6.5,4.5,8.5c2.5,2,5.7,3.1,9.1,2.7     c3.4-0.4,6.3-2.1,8.3-4.6s3-5.8,2.7-9.3C50.4,80.8,48.7,77.8,46.2,75.7z"/>
			<path class="st1" d="M36.7,68.5c4.6-0.5,9,1,12.3,3.7c3.3,2.8,5.7,6.8,6.2,11.6c0.5,4.7-0.9,9.2-3.6,12.6     c-2.7,3.4-6.7,5.8-11.3,6.3s-9-1-12.3-3.7c-3.3-2.8-5.7-6.8-6.1-11.6c-0.5-4.7,0.9-9.2,3.6-12.6C28.1,71.4,32.1,69,36.7,68.5z      M48.4,73c-3.2-2.6-7.3-4-11.6-3.5s-8.1,2.7-10.6,5.9s-3.9,7.5-3.4,11.9c0.5,4.5,2.6,8.3,5.8,10.9c3.1,2.6,7.3,4,11.6,3.5     s8.1-2.7,10.6-5.9c2.5-3.2,3.9-7.5,3.4-11.9C53.8,79.4,51.6,75.6,48.4,73z"/>
			<path class="st1" d="M36.3,64.9c5.6-0.6,10.8,1.2,14.9,4.5c4,3.3,6.8,8.3,7.4,14c0.6,5.7-1.1,11.1-4.4,15.3     c-3.3,4.1-8,7-13.6,7.6s-10.8-1.1-14.9-4.5c-4-3.3-6.8-8.3-7.4-14s1.1-11.1,4.4-15.3C26,68.4,30.8,65.6,36.3,64.9z M50.6,70.2     c-3.8-3.2-8.9-4.9-14.2-4.3s-9.9,3.3-13,7.3c-3.1,3.9-4.7,9.1-4.2,14.5c0.6,5.4,3.2,10.1,7.1,13.3c3.8,3.2,8.9,4.9,14.2,4.3     s9.9-3.3,13-7.3c3.1-3.9,4.7-9.1,4.2-14.5C57.1,78.1,54.4,73.4,50.6,70.2z"/>
			<path class="st1" d="M36,61.4c6.5-0.7,12.7,1.3,17.4,5.2s8,9.7,8.7,16.4c0.7,6.7-1.3,13-5.1,17.9c-2,2.5-4.4,4.6-7.3,6.2h-2.2     c3.5-1.5,6.5-3.9,8.8-6.8c3.7-4.7,5.6-10.7,4.9-17.1s-3.8-11.9-8.3-15.7c-4.5-3.7-10.5-5.7-16.7-5s-11.6,3.9-15.3,8.6     S15.3,81.8,16,88.2s3.8,11.9,8.3,15.7c1.6,1.3,3.4,2.4,5.3,3.3h-2.2c-1.3-0.7-2.6-1.6-3.7-2.5c-4.7-3.9-8-9.7-8.7-16.3     s1.3-13,5.1-17.9C23.8,65.5,29.4,62.1,36,61.4z"/>
			<path class="st1" d="M35.2,54.3c8.4-0.9,16.4,1.7,22.5,6.8S68,73.6,68.9,82.2s-1.7,16.8-6.6,23.1c-0.5,0.6-1,1.2-1.5,1.7h-1.3     c0.7-0.7,1.4-1.5,2-2.3c4.8-6.1,7.3-14,6.4-22.4s-5-15.6-10.9-20.5s-13.7-7.5-21.8-6.6c-8.2,0.9-15.2,5.1-20,11.2     s-7.3,14-6.4,22.4c0.7,7.2,3.9,13.5,8.5,18.2H16c-4.3-4.7-7.3-11-8-18c-0.9-8.6,1.7-16.8,6.6-23.1S26.8,55.3,35.2,54.3z"/>
			<path class="st1" d="M34.9,50.8c9.4-1,18.3,1.9,25.1,7.6s11.5,13.9,12.5,23.5c1,9.4-1.7,18.3-7,25.2h-1.2l0.1-0.1     c5.3-6.8,8.1-15.6,7.2-25c-1-9.3-5.6-17.4-12.2-22.9S44.1,50.8,35,51.8s-17,5.7-22.3,12.5s-8.1,15.6-7.2,25     c0.7,6.8,3.3,12.9,7.2,17.8h-1.2c-3.8-5-6.3-11-7-17.7c-1-9.6,1.9-18.7,7.4-25.7C17.4,56.6,25.5,51.8,34.9,50.8z"/>
			<path class="st1" d="M33.7,40.2C46,38.8,57.6,42.7,66.5,50s15,18.2,16.3,30.7c1,9.5-0.9,18.5-5,26.3h-1.1     c4.1-7.7,6.1-16.8,5.1-26.2c-1.3-12.3-7.3-22.9-16-30c-8.7-7.2-20-11-32-9.6c-12,1.3-22.3,7.5-29.3,16.4     c-1.7,2.2-3.3,4.6-4.6,7.1v-2c1.1-2,2.4-3.9,3.8-5.7C11,47.8,21.5,41.5,33.7,40.2z M0,107.1v-0.5c0.1,0.2,0.2,0.3,0.2,0.5H0z"/>
			<path class="st1" d="M33.4,36.6c13.2-1.5,25.7,2.7,35.3,10.6s16.2,19.6,17.6,33.1c1,9.5-0.7,18.7-4.5,26.7h-1.1     c3.9-8,5.6-17.1,4.6-26.6C83.9,67.2,77.4,55.8,68,48S46.4,36.2,33.4,37.6C20.5,39,9.4,45.7,1.9,55.3C1.2,56.1,0.6,57,0,57.8v-1.7     c0.4-0.5,0.7-1,1.1-1.5C8.8,44.9,20.2,38.1,33.4,36.6z"/>
			<path class="st1" d="M33,33.1c14.1-1.6,27.6,2.9,37.8,11.4C81.1,53,88.2,65.5,89.7,80c1,9.6-0.6,18.9-4.1,27.1h-1.1     c3.6-8.2,5.2-17.4,4.2-27c-1.5-14.2-8.5-26.5-18.5-34.8C60.1,36.9,47,32.5,33.1,34.1C19.7,35.5,8.1,42.3,0,52v-1.5     C8.2,41,19.7,34.5,33,33.1z"/>
			<path class="st1" d="M32.3,26c16-1.8,31.3,3.3,42.9,12.9s19.7,23.8,21.4,40.3c1,9.8-0.3,19.3-3.5,27.9h-1     c3.3-8.5,4.6-18,3.6-27.7C94,63.1,86,49.2,74.6,39.7C63.1,30.2,48.1,25.3,32.4,27C19.8,28.4,8.7,33.8,0,41.8v-1.3     C8.7,32.6,19.8,27.4,32.3,26z"/>
			<path class="st1" d="M31.9,22.5c17-1.9,33.1,3.5,45.5,13.7c12.3,10.2,20.9,25.2,22.7,42.7c1,9.9-0.2,19.5-3.3,28.2h-1     c3.1-8.7,4.4-18.3,3.3-28.1c-1.8-17.2-10.2-32-22.3-42S48.8,21.7,32,23.5C19.8,24.8,8.8,29.7,0,37.1v-1.3     C8.9,28.6,19.8,23.8,31.9,22.5z"/>
			<path class="st1" d="M31.5,18.9c17.9-2,35,3.7,48,14.5s22.1,26.6,24,45c1.1,10-0.1,19.7-3,28.6h-1c3-8.9,4.2-18.6,3.1-28.5     C100.7,60.4,91.8,44.7,79,34.1S49.3,18,31.6,19.9C19.7,21.2,8.9,25.8,0,32.6v-1.2C9,24.7,19.7,20.2,31.5,18.9z"/>
			<path class="st1" d="M31.1,15.4c18.9-2.1,36.8,3.9,50.6,15.2S104.9,58.7,107,78c1.1,10.1,0,19.9-2.8,29h-1c2.9-9,4-18.8,2.9-28.9     c-2-19.1-11.4-35.6-24.9-46.8S50,14.2,31.3,16.3C19.6,17.6,9,21.9,0,28.2V27C9,20.8,19.6,16.7,31.1,15.4z"/>
			<path class="st1" d="M30.8,11.8c19.9-2.2,38.7,4.1,53.1,16s24.4,29.5,26.5,49.8c1.1,10.2,0.1,20.1-2.7,29.4h-1     c2.8-9.2,3.8-19.1,2.7-29.3c-2.1-20.1-12-37.4-26.2-49.2C69.1,16.9,50.5,10.7,30.9,12.8C19.5,14.1,9,18,0,24v-1.2     C9,16.9,19.5,13.1,30.8,11.8z"/>
			<path class="st1" d="M30.4,8.3C51.2,6,71,12.6,86.1,25.1s25.6,30.9,27.8,52.2c1.1,10.3,0.1,20.4-2.5,29.8h-1     c2.7-9.3,3.6-19.4,2.5-29.6c-2.2-21.1-12.5-39.2-27.4-51.6S51.1,7,30.5,9.3C19.4,10.5,9,14.2,0,19.8v-1.2     C9,13.1,19.3,9.5,30.4,8.3z"/>
			<path class="st1" d="M29.7,1.2C52.4-1.3,74,5.9,90.4,19.5s27.9,33.7,30.3,57c1.1,10.5,0.3,20.8-2.2,30.5h-1     c2.5-9.6,3.3-19.9,2.2-30.4c-2.4-23-13.7-42.9-30-56.3C73.5,6.8,52.2-0.3,29.8,2.2C19,3.4,9,6.7,0,11.6v-1.1     C9,5.6,19,2.4,29.7,1.2z"/>
			<path class="st1" d="M60.2,0c11.9,3.2,23,9,32.4,16.8c17.2,14.2,29.1,35.1,31.6,59.4c1.1,10.7,0.3,21.1-2.1,30.9h-1     c2.4-9.8,3.2-20.2,2.1-30.8c-2.5-24-14.3-44.7-31.3-58.7C81.6,9,69.3,2.9,56,0H60.2z M21.1,0C13.6,1.6,6.6,4.2,0,7.6V6.5     C5.3,3.7,10.9,1.6,16.8,0H21.1z"/>
			<path class="st1" d="M71.4,0c8.5,3.4,16.4,8.2,23.4,14c17.9,14.8,30.2,36.5,32.9,61.8c1.1,10.8,0.4,21.3-1.9,31.3h-1     c2.3-9.9,3.1-20.4,2-31.2c-2.6-25-14.9-46.5-32.5-61.1C86.6,8.5,77.9,3.4,68.6,0H71.4z M8.4,0C5.5,1.1,2.7,2.3,0,3.6V2.5     C1.8,1.6,3.7,0.8,5.6,0H8.4z"/>
			<path class="st1" d="M87.2,0c4.2,2.5,8.2,5.3,11.9,8.4c19.3,15.9,32.6,39.4,35.4,66.6c1.2,11,0.5,21.8-1.7,32h-1     c2.2-10.2,2.9-21,1.7-31.9c-2.8-26.9-16-50.2-35.1-65.9c-4-3.4-8.5-6.5-13.1-9.2H87.2z"/>
			<path class="st1" d="M105.5,0l0.2,0.1C127,17.7,141.8,43.7,145,73.9c1.2,11.4,0.6,22.5-1.4,33.2h-1c2.1-10.6,2.6-21.7,1.5-33.1     c-3.1-29.9-17.8-55.6-38.9-73.1c-0.4-0.3-0.7-0.6-1.1-0.9C104.1,0,105.5,0,105.5,0z"/>
			<path class="st1" d="M116.1,0c19.4,18.5,32.7,44,35.7,73.1c1.2,11.6,0.7,23-1.3,33.9h-1c2-10.9,2.5-22.2,1.3-33.8     c-3-29.2-16.4-54.8-36.1-73.2H116.1z"/>
		</g>
	</g>
</g>
</svg>